<svg width="17" height="17" viewBox="0 0 17 17" fill="none" xmlns="http://www.w3.org/2000/svg">
<g id="24 / basic / trash">
<path id="icon" fill-rule="evenodd" clip-rule="evenodd" d="M6.99137 0.714615H10.9914C11.7278 0.714615 12.3247 1.31157 12.3247 2.04795V2.71461H14.3247C15.0611 2.71461 15.658 3.31157 15.658 4.04795V5.38128C15.658 6.11766 15.0611 6.71461 14.3247 6.71461H14.2713L13.6581 14.0479C13.6581 14.7843 13.0611 15.3813 12.3247 15.3813H5.65808C4.9217 15.3813 4.32475 14.7843 4.32705 14.1033L3.71132 6.71461H3.65804C2.92166 6.71461 2.32471 6.11766 2.32471 5.38128V4.04795C2.32471 3.31157 2.92166 2.71461 3.65804 2.71461H5.65804V2.04795C5.65804 1.31157 6.25499 0.714615 6.99137 0.714615ZM3.65804 4.04795L5.65804 4.04795H12.3247L14.3247 4.04795V5.38128H3.65804V4.04795ZM5.04905 6.71461H12.9335L12.327 13.9926L12.3247 14.0479H5.65806L5.04905 6.71461ZM10.9914 2.04795V2.71461H6.99137V2.04795H10.9914Z" fill="white"/>
</g>
</svg>
