<svg width="12" height="11" viewBox="0 0 12 11" fill="none" xmlns="http://www.w3.org/2000/svg">
<path d="M4.869 9.90569C4.811 9.84918 4.563 9.63584 4.359 9.4371C3.076 8.27198 0.976 5.23252 0.335 3.64168C0.232 3.40008 0.0139998 2.78927 -9.56413e-08 2.46292C-8.19722e-08 2.15021 0.0720004 1.85211 0.218 1.56764C0.422001 1.21304 0.743 0.928579 1.122 0.77271C1.385 0.672369 2.172 0.5165 2.186 0.5165C3.047 0.36063 4.446 0.274902 5.992 0.274902C7.465 0.274902 8.807 0.36063 9.681 0.488249C9.695 0.502861 10.673 0.658731 11.008 0.829213C11.62 1.14193 12 1.75274 12 2.40642L12 2.46292C11.985 2.88864 11.605 3.78391 11.591 3.78391C10.949 5.28903 8.952 8.25834 7.625 9.45172C7.625 9.45172 7.284 9.78781 7.071 9.93394C6.765 10.1619 6.386 10.2749 6.007 10.2749C5.584 10.2749 5.19 10.1473 4.869 9.90569Z" fill="#007AFF"/>
</svg>
