<svg width="25" height="25" viewBox="0 0 25 25" fill="none" xmlns="http://www.w3.org/2000/svg">
<g id="24 / notifications / question-circle">
<path id="icon" fill-rule="evenodd" clip-rule="evenodd" d="M0.883423 12.8545C0.883423 19.4819 6.25601 24.8545 12.8834 24.8545C19.5108 24.8545 24.8834 19.4819 24.8834 12.8545C24.8834 6.22708 19.5108 0.854492 12.8834 0.854492C6.25601 0.854492 0.883423 6.22708 0.883423 12.8545ZM22.7016 12.8545C22.7016 18.2769 18.3059 22.6726 12.8835 22.6726C7.46103 22.6726 3.06528 18.2769 3.06528 12.8545C3.06528 7.43203 7.46103 3.03628 12.8835 3.03628C18.3059 3.03628 22.7016 7.43203 22.7016 12.8545ZM12.8838 18.3072C13.4865 18.3072 13.9751 17.8188 13.9751 17.2163C13.9751 16.6138 13.4865 16.1254 12.8838 16.1254C12.2811 16.1254 11.7926 16.6138 11.7926 17.2163C11.7926 17.8188 12.2811 18.3072 12.8838 18.3072ZM11.7926 15.0363H13.9744C13.9744 14.1654 14.1112 14.0058 15.0077 13.5575C16.5658 12.7785 17.2471 11.9836 17.2471 10.1272C17.2471 7.74975 15.3755 6.30906 12.8835 6.30906C10.4735 6.30906 8.51984 8.26273 8.51984 10.6727H10.7017C10.7017 9.46771 11.6785 8.49088 12.8835 8.49088C14.2767 8.49088 15.0653 9.09787 15.0653 10.1272C15.0653 10.9982 14.9285 11.1578 14.032 11.606C12.4739 12.3851 11.7926 13.18 11.7926 15.0363Z" fill="#838F9F"/>
</g>
</svg>
