<svg width="21" height="21" viewBox="0 0 21 21" fill="none" xmlns="http://www.w3.org/2000/svg">
<path fill-rule="evenodd" clip-rule="evenodd" d="M10.4033 0.421509C4.88332 0.421509 0.40332 4.90151 0.40332 10.4215C0.40332 15.9415 4.88332 20.4215 10.4033 20.4215C15.9233 20.4215 20.4033 15.9415 20.4033 10.4215C20.4033 4.90151 15.9233 0.421509 10.4033 0.421509ZM10.4033 18.4215C5.98332 18.4215 2.40332 14.8415 2.40332 10.4215C2.40332 6.00151 5.98332 2.42151 10.4033 2.42151C14.8233 2.42151 18.4033 6.00151 18.4033 10.4215C18.4033 14.8415 14.8233 18.4215 10.4033 18.4215ZM15.4033 10.4215C15.4033 13.1829 13.1647 15.4215 10.4033 15.4215C7.6419 15.4215 5.40332 13.1829 5.40332 10.4215C5.40332 7.66008 7.6419 5.42151 10.4033 5.42151C13.1647 5.42151 15.4033 7.66008 15.4033 10.4215Z" fill="#01A3FE"/>
</svg>
