<svg width="20" height="19" viewBox="0 0 20 19" fill="none" xmlns="http://www.w3.org/2000/svg">
<path d="M9.25575 5.81966L7.84154 4.40544L10.67 1.57702C12.6226 -0.375606 15.7884 -0.375607 17.741 1.57702C19.6937 3.52964 19.6937 6.69546 17.741 8.64808L14.9126 11.4765L13.4984 10.0623L16.3268 7.23387C17.4984 6.0623 17.4984 4.1628 16.3268 2.99123C15.1552 1.81966 13.2557 1.81966 12.0842 2.99123L9.25575 5.81966Z" fill="#01A3FE"/>
<path d="M10.67 12.8907L12.0842 14.3049L9.25575 17.1334C7.30313 19.086 4.1373 19.086 2.18468 17.1334C0.232059 15.1807 0.23206 12.0149 2.18468 10.0623L5.01311 7.23387L6.42732 8.64808L3.59889 11.4765C2.42732 12.6481 2.42732 14.5476 3.59889 15.7192C4.77047 16.8907 6.66996 16.8907 7.84154 15.7192L10.67 12.8907Z" fill="#01A3FE"/>
<path d="M7.13443 13.5978L14.2055 6.52676L12.7913 5.11255L5.72021 12.1836L7.13443 13.5978Z" fill="#01A3FE"/>
</svg>
