<svg width="78" height="25" viewBox="0 0 78 25" fill="none" xmlns="http://www.w3.org/2000/svg">
<path d="M1.28 5.02797H4.88C6.27733 5.02797 7.28 5.29463 7.888 5.82797C8.496 6.35063 8.8 7.0813 8.8 8.01997C8.8 8.53197 8.68267 8.99597 8.448 9.41197C8.21333 9.8173 7.85067 10.148 7.36 10.404C7.968 10.6493 8.41067 11.0013 8.688 11.46C8.976 11.9186 9.12 12.4573 9.12 13.076C9.12 14.0893 8.816 14.868 8.208 15.412C7.6 15.956 6.59733 16.228 5.2 16.228H1.28V5.02797ZM2.784 11.14V14.852H5.2C6.064 14.852 6.672 14.6973 7.024 14.388C7.376 14.0786 7.552 13.6146 7.552 12.996C7.552 12.3773 7.376 11.9133 7.024 11.604C6.672 11.2946 6.064 11.14 5.2 11.14H2.784ZM2.784 6.40397V9.79597H4.88C5.744 9.79597 6.352 9.65197 6.704 9.36397C7.056 9.0653 7.232 8.64397 7.232 8.09997C7.232 7.55597 7.056 7.13997 6.704 6.85197C6.352 6.5533 5.744 6.40397 4.88 6.40397H2.784ZM11.1219 8.22797H12.5619V10.788H14.0819C15.2872 10.788 16.1619 11.0333 16.7059 11.524C17.2499 12.004 17.5219 12.6653 17.5219 13.508C17.5219 14.3613 17.2499 15.028 16.7059 15.508C16.1619 15.988 15.2872 16.228 14.0819 16.228H11.1219V8.22797ZM18.6419 8.22797H20.0819V16.228H18.6419V8.22797ZM12.5619 12.1V14.916H14.1619C14.8659 14.916 15.3565 14.7986 15.6339 14.564C15.9112 14.3186 16.0499 13.9666 16.0499 13.508C16.0499 13.0493 15.9112 12.7026 15.6339 12.468C15.3565 12.2226 14.8659 12.1 14.1619 12.1H12.5619ZM25.2812 13.172L23.1533 16.228H21.5213L24.3853 12.132L21.6813 8.22797H23.3133L25.2812 11.124L27.2813 8.22797H28.8813L26.1773 12.148L29.0413 16.228H27.3773L25.2812 13.172ZM33.3688 16.356C32.8034 16.356 32.2914 16.2706 31.8328 16.1C31.3848 15.9186 31.0008 15.668 30.6808 15.348C30.3608 15.0173 30.1154 14.6173 29.9448 14.148C29.7741 13.668 29.6888 13.1293 29.6888 12.532V11.924C29.6888 11.3373 29.7741 10.8093 29.9448 10.34C30.1261 9.85997 30.3768 9.45463 30.6968 9.12397C31.0168 8.7933 31.4008 8.54263 31.8488 8.37197C32.3074 8.19063 32.8141 8.09997 33.3688 8.09997C33.9234 8.09997 34.4248 8.19063 34.8728 8.37197C35.3314 8.54263 35.7208 8.7933 36.0408 9.12397C36.3608 9.44397 36.6061 9.84397 36.7768 10.324C36.9581 10.7933 37.0487 11.3266 37.0487 11.924V12.532C37.0487 13.1293 36.9581 13.6626 36.7768 14.132C36.6061 14.6013 36.3608 15.0013 36.0408 15.332C35.7208 15.6626 35.3314 15.9186 34.8728 16.1C34.4248 16.2706 33.9234 16.356 33.3688 16.356ZM33.3688 14.98C34.0408 14.98 34.5688 14.7773 34.9528 14.372C35.3474 13.956 35.5448 13.3426 35.5448 12.532V11.924C35.5448 11.124 35.3474 10.516 34.9528 10.1C34.5688 9.68397 34.0408 9.47597 33.3688 9.47597C32.6968 9.47597 32.1634 9.68397 31.7688 10.1C31.3848 10.5053 31.1928 11.1133 31.1928 11.924V12.532C31.1928 13.332 31.3848 13.94 31.7688 14.356C32.1634 14.772 32.6968 14.98 33.3688 14.98ZM44.7294 16.228H39.2094V18.308H37.7694V14.916H38.6334C38.804 14.6813 38.9427 14.4413 39.0494 14.196C39.1667 13.94 39.2574 13.6466 39.3214 13.316C39.3854 12.9853 39.428 12.6066 39.4494 12.18C39.4814 11.7426 39.4974 11.2253 39.4974 10.628V8.22797H45.1294V14.916H46.1694V18.308H44.7294V16.228ZM40.9054 10.628C40.9054 11.268 40.8894 11.8173 40.8574 12.276C40.8254 12.7346 40.7774 13.1293 40.7134 13.46C40.6494 13.7906 40.5694 14.0733 40.4734 14.308C40.388 14.532 40.292 14.7346 40.1854 14.916H43.6894V9.53997H40.9054V10.628Z" fill="#838F9F"/>
<path fill-rule="evenodd" clip-rule="evenodd" d="M63.2929 7.93507L66.5858 11.228L56 11.228L56 13.228L66.5858 13.228L63.2929 16.5209L64.7071 17.9351L70.4142 12.228L64.7071 6.52086L63.2929 7.93507ZM74 2.22797L70 2.22797L70 4.22797L74 4.22797L74 20.228L70 20.228L70 22.228L74 22.228C75.1046 22.228 76 21.3325 76 20.228L76 4.22797C76 3.1234 75.1046 2.22797 74 2.22797Z" fill="#838F9F"/>
</svg>
