<svg width="128" height="128" viewBox="0 0 128 128" fill="none" xmlns="http://www.w3.org/2000/svg">
<path d="M63.9995 123.042C96.6078 123.042 123.042 96.6078 123.042 63.9995C123.042 31.3913 96.6078 4.95703 63.9995 4.95703C31.3913 4.95703 4.95703 31.3913 4.95703 63.9995C4.95703 96.6078 31.3913 123.042 63.9995 123.042Z" fill="#01A2FD"/>
<path d="M64 128C28.7132 128 0 99.2918 0 64C0 28.7132 28.7132 0 64 0C99.2918 0 128 28.7132 128 64C128 99.2918 99.2918 128 64 128ZM64 9.91475C34.1763 9.91475 9.91475 34.1763 9.91475 64C9.91475 93.8237 34.1763 118.085 64 118.085C93.8237 118.085 118.085 93.8188 118.085 64C118.085 34.1763 93.8237 9.91475 64 9.91475Z" fill="#01A2FD"/>
<path d="M88.7874 68.4658H39.2134C36.4769 68.4658 34.2559 66.2448 34.2559 63.5083C34.2559 60.7718 36.4769 58.5508 39.2134 58.5508H88.7874C91.5289 58.5508 93.7449 60.7718 93.7449 63.5083C93.7449 66.2448 91.5289 68.4658 88.7874 68.4658Z" fill="white"/>
</svg>
