<svg width="23" height="20" viewBox="0 0 23 20" fill="none" xmlns="http://www.w3.org/2000/svg">
<path fill-rule="evenodd" clip-rule="evenodd" d="M1.14086 1.76766L2.55086 0.347656L20.2809 18.0977L18.8709 19.5077L15.4409 16.0777C14.1009 16.5977 12.6509 16.8977 11.1309 16.8977C6.13086 16.8977 1.86086 13.7877 0.130859 9.39766C0.900859 7.42766 2.19086 5.72766 3.82086 4.44766L1.14086 1.76766ZM16.1309 9.39766C16.1309 6.63766 13.8909 4.39766 11.1309 4.39766C10.6209 4.39766 10.1309 4.49766 9.66086 4.63766L7.49086 2.46766C8.64086 2.09766 9.86086 1.89766 11.1309 1.89766C16.1309 1.89766 20.4009 5.00766 22.1309 9.38766C21.4409 11.1477 20.3409 12.6877 18.9509 13.9177L15.8909 10.8577C16.0309 10.3977 16.1309 9.90766 16.1309 9.39766ZM11.1309 14.3977C8.37086 14.3977 6.13086 12.1577 6.13086 9.39766C6.13086 8.62766 6.31086 7.89766 6.62086 7.25766L8.19086 8.82766C8.16086 9.00766 8.13086 9.19766 8.13086 9.39766C8.13086 11.0577 9.47086 12.3977 11.1309 12.3977C11.3309 12.3977 11.5109 12.3677 11.7009 12.3277L13.2709 13.8977C12.6209 14.2177 11.9009 14.3977 11.1309 14.3977ZM14.1009 9.06766C13.9509 7.66766 12.8509 6.57766 11.4609 6.42766L14.1009 9.06766Z" fill="#007AFF"/>
</svg>
