<svg width="20" height="21" viewBox="0 0 20 21" fill="none" xmlns="http://www.w3.org/2000/svg">
<path fill-rule="evenodd" clip-rule="evenodd" d="M14.3588 0.378418H5.6412C2.25586 0.378418 0 2.79832 0 6.27159V14.4852C0 17.9618 2.24992 20.3784 5.6412 20.3784H14.3588C17.7501 20.3784 20 17.9618 20 14.4852V6.27159C20 2.79507 17.7501 0.378418 14.3588 0.378418ZM5.6412 1.77377H14.3588C16.9563 1.77377 18.6047 3.54429 18.6047 6.27159V14.4852C18.6047 17.2125 16.9563 18.9831 14.3588 18.9831H5.6412C3.04372 18.9831 1.39535 17.2125 1.39535 14.4852V6.27159C1.39535 3.54791 3.04923 1.77377 5.6412 1.77377ZM10 6.26429C10.3532 6.26429 10.6451 6.52675 10.6913 6.86729L10.6977 6.96196V9.67189H13.4109C13.7962 9.67189 14.1085 9.98425 14.1085 10.3696C14.1085 10.7228 13.8461 11.0147 13.5055 11.0609L13.4109 11.0672H10.6977V13.7772C10.6977 14.1625 10.3853 14.4748 10 14.4748C9.64679 14.4748 9.35489 14.2124 9.30869 13.8718L9.30233 13.7772V11.0672H6.58915C6.20383 11.0672 5.89147 10.7549 5.89147 10.3696C5.89147 10.0164 6.15394 9.72446 6.49448 9.67826L6.58915 9.67189H9.30233V6.96196C9.30233 6.57664 9.61469 6.26429 10 6.26429Z" fill="#AAB9CE"/>
</svg>
