<svg width="128" height="128" viewBox="0 0 128 128" fill="none" xmlns="http://www.w3.org/2000/svg">
<path d="M64 123.043C96.6083 123.043 123.043 96.6083 123.043 64C123.043 31.3917 96.6083 4.95752 64 4.95752C31.3917 4.95752 4.95752 31.3917 4.95752 64C4.95752 96.6083 31.3917 123.043 64 123.043Z" fill="#01A2FD"/>
<path d="M64 128C28.7132 128 0 99.2918 0 64C0 28.7132 28.7132 0 64 0C99.2918 0 128 28.7132 128 64C128 99.2918 99.2918 128 64 128ZM64 9.91475C34.1763 9.91475 9.91475 34.1763 9.91475 64C9.91475 93.8237 34.1763 118.085 64 118.085C93.8237 118.085 118.085 93.8188 118.085 64C118.085 34.1763 93.8237 9.91475 64 9.91475Z" fill="#01A2FD"/>
<path d="M64 93.2981C61.2635 93.2981 59.0425 91.0821 59.0425 88.3406V38.7666C59.0425 36.0301 61.2635 33.8091 64 33.8091C66.7365 33.8091 68.9575 36.0301 68.9575 38.7666V88.3406C68.9575 91.0821 66.7365 93.2981 64 93.2981Z" fill="white"/>
<path d="M88.7869 68.5112H39.2129C36.4764 68.5112 34.2554 66.2902 34.2554 63.5537C34.2554 60.8172 36.4764 58.5962 39.2129 58.5962H88.7869C91.5284 58.5962 93.7444 60.8172 93.7444 63.5537C93.7444 66.2902 91.5284 68.5112 88.7869 68.5112Z" fill="white"/>
</svg>
