<svg width="17" height="17" viewBox="0 0 17 17" fill="none" xmlns="http://www.w3.org/2000/svg">
<path fill-rule="evenodd" clip-rule="evenodd" d="M6.74129 5.52114H4.20333C5.11032 4.24027 6.47888 3.52114 8.07463 3.52114C11.0201 3.52114 13.408 5.90895 13.408 8.85447H14.7413C14.7413 5.17257 11.7565 2.18781 8.07463 2.18781C6.20514 2.18781 4.55803 2.97615 3.40796 4.36804V2.18781H2.07463V6.85447H6.74129V5.52114ZM9.40796 12.1878H11.9459C11.0389 13.4687 9.67037 14.1878 8.07463 14.1878C5.12911 14.1878 2.74129 11.8 2.74129 8.85447H1.40796C1.40796 12.5364 4.39273 15.5211 8.07463 15.5211C9.94411 15.5211 11.5912 14.7328 12.7413 13.3409V15.5211H14.0746V10.8545H9.40796V12.1878Z" fill="white"/>
</svg>
