<svg width="20" height="20" viewBox="0 0 20 20" fill="none" xmlns="http://www.w3.org/2000/svg">
<path fill-rule="evenodd" clip-rule="evenodd" d="M8.29297 16.2289C3.87469 16.2289 0.292969 12.6472 0.292969 8.22894C0.292969 3.81066 3.87469 0.228943 8.29297 0.228943C12.7112 0.228943 16.293 3.81066 16.293 8.22894C16.293 10.0777 15.6659 11.7799 14.6128 13.1346L20.0001 18.5218L18.5859 19.9361L13.1986 14.5488C11.8439 15.6019 10.1417 16.2289 8.29297 16.2289ZM14.293 8.22894C14.293 11.5427 11.6067 14.2289 8.29297 14.2289C4.97926 14.2289 2.29297 11.5427 2.29297 8.22894C2.29297 4.91523 4.97926 2.22894 8.29297 2.22894C11.6067 2.22894 14.293 4.91523 14.293 8.22894Z" fill="#01A3FE"/>
</svg>
