<svg width="24" height="24" viewBox="0 0 24 24" fill="none" xmlns="http://www.w3.org/2000/svg">
<path fill-rule="evenodd" clip-rule="evenodd" d="M9.74268 19.4854C4.36195 19.4854 0 15.1234 0 9.74268C0 4.36195 4.36195 0 9.74268 0C15.1234 0 19.4854 4.36195 19.4854 9.74268C19.4854 11.9941 18.7216 14.0672 17.4392 15.717L23.9999 22.2778L22.2777 24.0001L15.7169 17.4393C14.0671 18.7217 11.9941 19.4854 9.74268 19.4854ZM17.0497 9.74268C17.0497 13.7782 13.7782 17.0497 9.74268 17.0497C5.70713 17.0497 2.43567 13.7782 2.43567 9.74268C2.43567 5.70713 5.70713 2.43567 9.74268 2.43567C13.7782 2.43567 17.0497 5.70713 17.0497 9.74268Z" fill="#838F9F"/>
</svg>
