<svg width="25" height="25" viewBox="0 0 25 25" fill="none" xmlns="http://www.w3.org/2000/svg">
<path fill-rule="evenodd" clip-rule="evenodd" d="M19.2622 22.5613L21.681 20.1425L20.8291 17.0476L21.2002 16.1612L24.0011 14.5808V11.1602L21.2082 9.57314L20.8433 8.68831L21.7059 5.59182L19.2853 3.17478L16.1901 4.02643L15.3057 3.65561L13.7252 0.854492H10.3046L8.71755 3.64739L7.83292 4.01223L4.73693 3.14857L2.32015 5.56535L3.17194 8.66104L2.80112 9.54545L0 11.126V14.5456L2.79039 16.1362L3.15562 17.0218L2.29316 20.1178L4.71086 22.5354L7.80655 21.6837L8.69106 22.0545L10.2717 24.8545H13.6914L15.2808 22.064L16.1662 21.6989L19.2622 22.5613ZM19.4765 14.6285L18.5254 16.9001L19.2404 19.4974L18.6203 20.1175L16.0284 19.3955L13.7559 20.3327L12.4231 22.6726H11.5455L10.2238 20.3312L7.95479 19.3799L5.35603 20.0949L4.73697 19.4759L5.459 16.884L4.52183 14.6116L2.18192 13.2779V12.4002L4.52432 11.0784L5.47574 8.80928L4.76068 6.21052L5.37844 5.59275L7.97029 6.31578L10.2436 5.37821L11.5743 3.03641H12.451L13.7728 5.37881L16.0419 6.33023L18.6412 5.61503L19.2618 6.23473L18.5399 8.82608L19.4774 11.0992L21.8192 12.4299V13.3066L19.4765 14.6285ZM12.0006 17.2189C9.59047 17.2189 7.63671 15.2651 7.63671 12.855C7.63671 10.445 9.59047 8.49121 12.0006 8.49121C14.4106 8.49121 16.3644 10.445 16.3644 12.855C16.3644 15.2651 14.4106 17.2189 12.0006 17.2189ZM14.1825 12.855C14.1825 14.0601 13.2056 15.037 12.0006 15.037C10.7955 15.037 9.81863 14.0601 9.81863 12.855C9.81863 11.65 10.7955 10.6731 12.0006 10.6731C13.2056 10.6731 14.1825 11.65 14.1825 12.855Z" fill="#838F9F"/>
</svg>
