<svg width="44" height="43" viewBox="0 0 44 43" fill="none" xmlns="http://www.w3.org/2000/svg">
<path d="M44 20.4286C44 32.5788 34.1503 42.4286 22 42.4286C5.76191 42.4286 0 35.0952 0 20.4286C0 8.27831 8.27831 0 20.4286 0C32.4762 1.57143 44 8.27831 44 20.4286Z" fill="#F5F5F5"/>
<path d="M36.5833 12.0722C37.2931 12.7821 37.2937 13.9329 36.5849 14.6438L34.0133 17.2192L34.009 17.2154L31.6412 14.8476L28.2974 11.5033L25.9253 9.13118L28.5012 6.55958C29.2121 5.85135 30.3624 5.85188 31.0728 6.5612L36.5833 12.0722Z" fill="#B3B3B4"/>
<path d="M34.0133 17.2191L17.5329 33.7339C17.4797 33.7871 17.42 33.8334 17.3555 33.8716L17.3539 33.8705L14.9861 31.5022L31.6359 14.8529L31.6412 14.8475L34.009 17.2153L34.0133 17.2191Z" fill="#01A3FE"/>
<path d="M31.6411 14.8475L31.6357 14.8529L14.9859 31.5022L11.6421 28.1583L28.2919 11.5091L28.2972 11.5032L31.6411 14.8475Z" fill="#B3E4FF"/>
<path d="M28.2975 11.5032L28.2921 11.5091L11.6423 28.1583L9.27295 25.7889C9.31113 25.725 9.35738 25.6653 9.41062 25.6131L25.9254 9.1311L28.2975 11.5032Z" fill="#01A3FE"/>
<path d="M14.9863 31.5023L17.3541 33.8706L17.3557 33.8717C17.274 33.9201 17.1853 33.9561 17.0928 33.9776L6.78271 36.3621L9.16717 26.052C9.18868 25.9595 9.22471 25.8708 9.27311 25.7891L14.9863 31.5023Z" fill="#B3B3B4"/>
</svg>
