<svg width="44" height="43" viewBox="0 0 44 43" fill="none" xmlns="http://www.w3.org/2000/svg">
<path d="M44 20.4286C44 32.5788 34.1503 42.4286 22 42.4286C5.76191 42.4286 0 35.0952 0 20.4286C0 8.27831 8.27831 0 20.4286 0C32.4762 1.57143 44 8.27831 44 20.4286Z" fill="#F5F5F5"/>
<path d="M31.5778 25.0339C33.1129 25.0339 34.3574 26.2784 34.3574 27.8135C34.3574 29.3486 33.1129 30.5931 31.5778 30.5931H10.8848C9.34973 30.5931 8.10522 29.3486 8.10522 27.8135C8.10522 26.2784 9.34973 25.0339 10.8848 25.0339H31.5778Z" fill="#B3E4FF"/>
<path d="M23.6972 9.03137H24.1561C28.2146 9.03195 31.5043 12.3223 31.5043 16.3808V25.034H10.9575V16.3808C10.9575 12.3223 14.2473 9.03195 18.3063 9.03137H23.6972Z" fill="#01A3FE"/>
<path d="M25.3164 30.5931V32.6727C25.3164 34.9288 23.4872 36.758 21.2312 36.758C18.9751 36.758 17.1465 34.9288 17.1465 32.6727V30.5931H25.3164Z" fill="#B3B3B4"/>
<path d="M23.6974 7.0973V9.03132H18.7654V7.0973C18.7654 5.73575 19.8695 4.63159 21.2311 4.63159C22.5932 4.63159 23.6974 5.73575 23.6974 7.0973Z" fill="#B3E4FF"/>
</svg>
