<svg width="44" height="43" viewBox="0 0 44 43" fill="none" xmlns="http://www.w3.org/2000/svg">
<path d="M44 20.4286C44 32.5788 34.1503 42.4286 22 42.4286C5.76191 42.4286 0 35.0952 0 20.4286C0 8.27831 8.27831 0 20.4286 0C32.4762 1.57143 44 8.27831 44 20.4286Z" fill="#F5F5F5"/>
<path d="M22.0002 6.94739C29.6742 6.94739 35.8947 13.1684 35.8947 20.8419C35.8947 28.5159 29.6742 34.7369 22.0002 34.7369C14.3262 34.7369 8.10522 28.5159 8.10522 20.8419C8.10522 13.1684 14.3262 6.94739 22.0002 6.94739ZM32.486 20.8419C32.486 15.0509 27.7912 10.356 22.0002 10.356C16.2087 10.356 11.5139 15.0509 11.5139 20.8419C11.5139 26.6334 16.2087 31.3282 22.0002 31.3282C27.7917 31.3287 32.4865 26.6334 32.486 20.8419Z" fill="#01A3FE"/>
<path d="M22.0002 10.3569C27.7913 10.3574 32.4851 15.0522 32.4851 20.8433C32.4847 26.6343 27.7898 31.3286 21.9988 31.3282C16.2078 31.3277 11.5134 26.6329 11.5139 20.8418C11.5144 15.0508 16.2092 10.3569 22.0002 10.3569Z" fill="#B3E4FF"/>
<path d="M26.0813 22.684H21.4172C20.8828 22.684 20.4495 22.2508 20.4495 21.7164V15.596C20.4495 15.0616 20.8828 14.6283 21.4172 14.6283C21.9516 14.6283 22.3848 15.0616 22.3848 15.596V20.7487H26.0813C26.6157 20.7487 27.0489 21.1819 27.0489 21.7164C27.0489 22.2508 26.6157 22.684 26.0813 22.684Z" fill="#B3B3B4"/>
</svg>
