<svg width="1382" height="767" viewBox="0 0 1382 767" fill="none" xmlns="http://www.w3.org/2000/svg">
<rect opacity="0.8" x="76.8347" y="0.570312" width="1200" height="603.41" rx="17" fill="#007AFF"/>
<line x1="76.8347" y1="52.0403" x2="1276.83" y2="52.0404" stroke="#7EB2F8"/>
<path fill-rule="evenodd" clip-rule="evenodd" d="M154.336 34.2363C149.917 34.2363 146.336 30.6546 146.336 26.2363C146.336 21.818 149.917 18.2363 154.336 18.2363C158.754 18.2363 162.336 21.818 162.336 26.2363C162.336 28.085 161.708 29.7873 160.655 31.142L166.043 36.5292L164.628 37.9434L159.241 32.5562C157.887 33.6092 156.184 34.2363 154.336 34.2363ZM160.336 26.2363C160.336 29.55 157.649 32.2363 154.336 32.2363C151.022 32.2363 148.336 29.55 148.336 26.2363C148.336 22.9226 151.022 20.2363 154.336 20.2363C157.649 20.2363 160.336 22.9226 160.336 26.2363Z" fill="white"/>
<path d="M94.0501 88.4085V100.487C94.6621 100.577 95.6521 100.667 97.0021 100.667C98.8561 100.667 100.764 100.307 101.934 99.2625C102.636 98.6325 103.086 97.7145 103.086 96.5265C103.086 95.1945 102.528 94.2405 101.682 93.6285C100.764 92.9445 99.4861 92.6385 98.2621 92.6385C97.7761 92.6385 97.2001 92.6745 96.7861 92.7285V90.6405H102.114V88.4085H94.0501ZM96.7681 94.7445C97.1101 94.6905 97.4341 94.6725 97.7401 94.6725C98.3881 94.6725 99.0721 94.8345 99.5581 95.2125C99.9541 95.5185 100.206 95.9685 100.206 96.5805C100.206 97.1745 99.9721 97.6605 99.6121 97.9845C99.1621 98.3985 98.4961 98.6145 97.8301 98.6145C97.4521 98.6145 97.0741 98.5965 96.7681 98.5425V94.7445ZM112.582 97.0125C112.618 96.8145 112.672 96.4005 112.672 95.9325C112.672 93.7545 111.592 91.5405 108.748 91.5405C105.688 91.5405 104.302 94.0065 104.302 96.2385C104.302 98.9925 106.012 100.721 109 100.721C110.188 100.721 111.286 100.541 112.186 100.181L111.826 98.3265C111.088 98.5605 110.332 98.6865 109.396 98.6865C108.118 98.6865 107.002 98.1465 106.912 97.0125H112.582ZM106.894 95.1405C106.966 94.4025 107.434 93.3585 108.586 93.3585C109.846 93.3585 110.134 94.4745 110.134 95.1405H106.894ZM115.285 96.8505H116.599C117.769 96.8505 118.507 97.1385 118.507 97.8405C118.507 98.3625 117.967 98.7765 116.815 98.7765C115.897 98.7585 114.889 98.4885 114.295 98.1645L113.719 99.8565C114.655 100.415 115.915 100.703 117.139 100.703C118.939 100.703 121.513 100.145 121.513 98.0025C121.513 96.6705 120.307 96.0585 119.227 95.9325V95.8605C120.091 95.6625 121.135 95.0685 121.135 93.9165C121.135 92.1165 119.173 91.5585 117.571 91.5585C116.347 91.5585 115.033 91.8285 113.989 92.4585L114.529 94.0605C115.159 93.7005 115.969 93.4305 116.743 93.4305C117.715 93.4305 118.237 93.8085 118.237 94.2945C118.237 94.7985 117.697 95.1765 116.581 95.1765H115.285V96.8505ZM126.796 91.7385V100.541H129.532V93.8265H132.232V100.541H134.986V91.7385H126.796ZM137.185 104.105H139.921V99.7305H139.957C140.353 100.307 141.181 100.739 142.243 100.739C144.205 100.739 146.239 99.2265 146.239 96.0225C146.239 93.2145 144.511 91.5405 142.585 91.5405C141.307 91.5405 140.299 92.0265 139.651 92.9625H139.615L139.489 91.7385H137.113C137.149 92.5485 137.185 93.5385 137.185 94.6905V104.105ZM139.921 95.5545C139.921 95.3925 139.939 95.2125 139.975 95.0685C140.155 94.2585 140.839 93.6825 141.613 93.6825C142.837 93.6825 143.467 94.7445 143.467 96.1485C143.467 97.6425 142.765 98.6325 141.577 98.6325C140.785 98.6325 140.155 98.0745 139.975 97.3365C139.939 97.1745 139.921 96.9765 139.921 96.7605V95.5545ZM152.136 91.5405C149.31 91.5405 147.438 93.3585 147.438 96.2025C147.438 99.0465 149.418 100.739 151.992 100.739C154.35 100.739 156.636 99.2625 156.636 96.0405C156.636 93.3945 154.836 91.5405 152.136 91.5405ZM152.064 93.4845C153.306 93.4845 153.81 94.8165 153.81 96.1305C153.81 97.7145 153.126 98.7765 152.064 98.7765C150.894 98.7765 150.264 97.6425 150.264 96.1305C150.264 94.8345 150.75 93.4845 152.064 93.4845ZM166.107 97.0125C166.143 96.8145 166.197 96.4005 166.197 95.9325C166.197 93.7545 165.117 91.5405 162.273 91.5405C159.213 91.5405 157.827 94.0065 157.827 96.2385C157.827 98.9925 159.537 100.721 162.525 100.721C163.713 100.721 164.811 100.541 165.711 100.181L165.351 98.3265C164.613 98.5605 163.857 98.6865 162.921 98.6865C161.643 98.6865 160.527 98.1465 160.437 97.0125H166.107ZM160.419 95.1405C160.491 94.4025 160.959 93.3585 162.111 93.3585C163.371 93.3585 163.659 94.4745 163.659 95.1405H160.419ZM167.841 91.7385V100.541H170.559V97.0485H170.829C171.729 97.0485 172.269 97.5885 172.665 98.5965C173.007 99.5325 173.223 100.163 173.457 100.541H176.319C175.887 99.7125 175.545 98.6865 175.257 97.9485C174.735 96.6705 174.087 95.7165 173.043 95.5185L176.283 91.7385H173.079L170.865 95.2485H170.559V91.7385H167.841ZM176.697 91.7385V93.8265H179.253V100.541H182.007V93.8265H184.563V91.7385H176.697ZM193.118 100.541C193.028 100.055 192.992 99.2445 192.992 98.3985V95.3385C192.992 93.2685 192.056 91.5405 189.122 91.5405C187.52 91.5405 186.314 91.9725 185.702 92.3145L186.206 94.0785C186.782 93.7185 187.736 93.4125 188.636 93.4125C189.986 93.4125 190.238 94.0785 190.238 94.5465V94.6725C187.124 94.6545 185.072 95.7525 185.072 98.0385C185.072 99.4425 186.134 100.739 187.916 100.739C188.96 100.739 189.86 100.361 190.436 99.6585H190.49L190.652 100.541H193.118ZM190.328 97.3365C190.328 97.4985 190.31 97.6605 190.274 97.8045C190.094 98.3625 189.536 98.8125 188.852 98.8125C188.24 98.8125 187.772 98.4705 187.772 97.7685C187.772 96.7065 188.888 96.3645 190.328 96.3825V97.3365Z" fill="white"/>
<g filter="url(#filter0_d)">
<rect x="92.8621" y="110.541" width="368" height="67.9546" rx="8" fill="white" fill-opacity="0.9"/>
</g>
<path d="M94.0501 206.363V218.495H96.8041V208.613H101.106V218.495H103.86V206.363H94.0501ZM106.142 222.059H108.878V217.685H108.914C109.31 218.261 110.138 218.693 111.2 218.693C113.162 218.693 115.196 217.181 115.196 213.977C115.196 211.169 113.468 209.495 111.542 209.495C110.264 209.495 109.256 209.981 108.608 210.917H108.572L108.446 209.693H106.07C106.106 210.503 106.142 211.493 106.142 212.645V222.059ZM108.878 213.509C108.878 213.347 108.896 213.167 108.932 213.023C109.112 212.213 109.796 211.637 110.57 211.637C111.794 211.637 112.424 212.699 112.424 214.103C112.424 215.597 111.722 216.587 110.534 216.587C109.742 216.587 109.112 216.029 108.932 215.291C108.896 215.129 108.878 214.931 108.878 214.715V213.509ZM121.094 209.495C118.268 209.495 116.396 211.313 116.396 214.157C116.396 217.001 118.376 218.693 120.95 218.693C123.308 218.693 125.594 217.217 125.594 213.995C125.594 211.349 123.794 209.495 121.094 209.495ZM121.022 211.439C122.264 211.439 122.768 212.771 122.768 214.085C122.768 215.669 122.084 216.731 121.022 216.731C119.852 216.731 119.222 215.597 119.222 214.085C119.222 212.789 119.708 211.439 121.022 211.439ZM135.064 214.967C135.1 214.769 135.154 214.355 135.154 213.887C135.154 211.709 134.074 209.495 131.23 209.495C128.17 209.495 126.784 211.961 126.784 214.193C126.784 216.947 128.494 218.675 131.482 218.675C132.67 218.675 133.768 218.495 134.668 218.135L134.308 216.281C133.57 216.515 132.814 216.641 131.878 216.641C130.6 216.641 129.484 216.101 129.394 214.967H135.064ZM129.376 213.095C129.448 212.357 129.916 211.313 131.068 211.313C132.328 211.313 132.616 212.429 132.616 213.095H129.376ZM136.798 209.693V218.495H139.516V215.003H139.786C140.686 215.003 141.226 215.543 141.622 216.551C141.964 217.487 142.18 218.117 142.414 218.495H145.276C144.844 217.667 144.502 216.641 144.214 215.903C143.692 214.625 143.044 213.671 142 213.473L145.24 209.693H142.036L139.822 213.203H139.516V209.693H136.798ZM145.654 209.693V211.781H148.21V218.495H150.964V211.781H153.52V209.693H145.654ZM158.058 217.865C158.742 218.297 160.02 218.693 161.532 218.693C164.502 218.693 166.32 217.181 166.32 215.111C166.32 213.581 165.186 212.519 163.782 212.267V212.231C165.222 211.727 165.924 210.755 165.924 209.513C165.924 207.911 164.538 206.597 162.036 206.597C160.524 206.597 159.12 207.029 158.418 207.479L158.976 209.459C159.462 209.171 160.47 208.757 161.424 208.757C162.576 208.757 163.152 209.279 163.152 209.981C163.152 210.971 161.982 211.313 161.064 211.331H160.002V213.293H161.118C162.324 213.293 163.476 213.815 163.476 214.967C163.476 215.849 162.756 216.533 161.334 216.533C160.218 216.533 159.102 216.065 158.616 215.813L158.058 217.865Z" fill="white"/>
<g filter="url(#filter1_d)">
<path d="M92.8621 236.495C92.8621 232.077 96.4438 228.495 100.862 228.495H452.862C457.28 228.495 460.862 232.077 460.862 236.495V296.45H92.8621V236.495Z" fill="white" fill-opacity="0.9"/>
</g>
<g filter="url(#filter2_d)">
<path d="M92.8621 296.45H460.862V382.906C460.862 387.324 457.28 390.906 452.862 390.906H100.862C96.4438 390.906 92.8621 387.324 92.8621 382.906V296.45Z" fill="white" fill-opacity="0.9"/>
</g>
<path d="M494.023 85.3534V97.4854H496.777V87.6034H501.079V97.4854H503.833V85.3534H494.023ZM506.114 101.049H508.85V96.6754H508.886C509.282 97.2514 510.11 97.6834 511.172 97.6834C513.134 97.6834 515.168 96.1714 515.168 92.9674C515.168 90.1594 513.44 88.4854 511.514 88.4854C510.236 88.4854 509.228 88.9714 508.58 89.9074H508.544L508.418 88.6834H506.042C506.078 89.4934 506.114 90.4834 506.114 91.6354V101.049ZM508.85 92.4994C508.85 92.3374 508.868 92.1574 508.904 92.0134C509.084 91.2034 509.768 90.6274 510.542 90.6274C511.766 90.6274 512.396 91.6894 512.396 93.0934C512.396 94.5874 511.694 95.5774 510.506 95.5774C509.714 95.5774 509.084 95.0194 508.904 94.2814C508.868 94.1194 508.85 93.9214 508.85 93.7054V92.4994ZM521.066 88.4854C518.24 88.4854 516.368 90.3034 516.368 93.1474C516.368 95.9914 518.348 97.6834 520.922 97.6834C523.28 97.6834 525.566 96.2074 525.566 92.9854C525.566 90.3394 523.766 88.4854 521.066 88.4854ZM520.994 90.4294C522.236 90.4294 522.74 91.7614 522.74 93.0754C522.74 94.6594 522.056 95.7214 520.994 95.7214C519.824 95.7214 519.194 94.5874 519.194 93.0754C519.194 91.7794 519.68 90.4294 520.994 90.4294ZM535.037 93.9574C535.073 93.7594 535.127 93.3454 535.127 92.8774C535.127 90.6994 534.047 88.4854 531.203 88.4854C528.143 88.4854 526.757 90.9514 526.757 93.1834C526.757 95.9374 528.467 97.6654 531.455 97.6654C532.643 97.6654 533.741 97.4854 534.641 97.1254L534.281 95.2714C533.543 95.5054 532.787 95.6314 531.851 95.6314C530.573 95.6314 529.457 95.0914 529.367 93.9574H535.037ZM529.349 92.0854C529.421 91.3474 529.889 90.3034 531.041 90.3034C532.301 90.3034 532.589 91.4194 532.589 92.0854H529.349ZM536.771 88.6834V97.4854H539.489V93.9934H539.759C540.659 93.9934 541.199 94.5334 541.595 95.5414C541.937 96.4774 542.153 97.1074 542.387 97.4854H545.249C544.817 96.6574 544.475 95.6314 544.187 94.8934C543.665 93.6154 543.017 92.6614 541.973 92.4634L545.213 88.6834H542.009L539.795 92.1934H539.489V88.6834H536.771ZM545.627 88.6834V90.7714H548.183V97.4854H550.937V90.7714H553.493V88.6834H545.627ZM561.594 97.4854H564.24V85.7854H561.972L558.876 87.2254L559.326 89.2774L561.558 88.2154H561.594V97.4854Z" fill="white"/>
<g filter="url(#filter3_d)">
<path d="M492.835 115.485C492.835 111.067 496.416 107.485 500.835 107.485H852.835C857.253 107.485 860.835 111.067 860.835 115.485V337.851H492.835V115.485Z" fill="white" fill-opacity="0.9"/>
</g>
<g filter="url(#filter4_d)">
<path d="M492.835 337.851H860.835V424.307C860.835 428.726 857.253 432.307 852.835 432.307H500.835C496.416 432.307 492.835 428.726 492.835 424.307V337.851Z" fill="white" fill-opacity="0.9"/>
</g>
<path d="M893.995 88.4085V100.541H896.749V90.6585H901.051V100.541H903.805V88.4085H893.995ZM906.087 104.105H908.823V99.7305H908.859C909.255 100.307 910.083 100.739 911.145 100.739C913.107 100.739 915.141 99.2265 915.141 96.0225C915.141 93.2145 913.413 91.5405 911.487 91.5405C910.209 91.5405 909.201 92.0265 908.553 92.9625H908.517L908.391 91.7385H906.015C906.051 92.5485 906.087 93.5385 906.087 94.6905V104.105ZM908.823 95.5545C908.823 95.3925 908.841 95.2125 908.877 95.0685C909.057 94.2585 909.741 93.6825 910.515 93.6825C911.739 93.6825 912.369 94.7445 912.369 96.1485C912.369 97.6425 911.667 98.6325 910.479 98.6325C909.687 98.6325 909.057 98.0745 908.877 97.3365C908.841 97.1745 908.823 96.9765 908.823 96.7605V95.5545ZM921.039 91.5405C918.213 91.5405 916.341 93.3585 916.341 96.2025C916.341 99.0465 918.321 100.739 920.895 100.739C923.253 100.739 925.539 99.2625 925.539 96.0405C925.539 93.3945 923.739 91.5405 921.039 91.5405ZM920.967 93.4845C922.209 93.4845 922.713 94.8165 922.713 96.1305C922.713 97.7145 922.029 98.7765 920.967 98.7765C919.797 98.7765 919.167 97.6425 919.167 96.1305C919.167 94.8345 919.653 93.4845 920.967 93.4845ZM935.009 97.0125C935.045 96.8145 935.099 96.4005 935.099 95.9325C935.099 93.7545 934.019 91.5405 931.175 91.5405C928.115 91.5405 926.729 94.0065 926.729 96.2385C926.729 98.9925 928.439 100.721 931.427 100.721C932.615 100.721 933.713 100.541 934.613 100.181L934.253 98.3265C933.515 98.5605 932.759 98.6865 931.823 98.6865C930.545 98.6865 929.429 98.1465 929.339 97.0125H935.009ZM929.321 95.1405C929.393 94.4025 929.861 93.3585 931.013 93.3585C932.273 93.3585 932.561 94.4745 932.561 95.1405H929.321ZM936.743 91.7385V100.541H939.461V97.0485H939.731C940.631 97.0485 941.171 97.5885 941.567 98.5965C941.909 99.5325 942.125 100.163 942.359 100.541H945.221C944.789 99.7125 944.447 98.6865 944.159 97.9485C943.637 96.6705 942.989 95.7165 941.945 95.5185L945.185 91.7385H941.981L939.767 95.2485H939.461V91.7385H936.743ZM945.6 91.7385V93.8265H948.156V100.541H950.91V93.8265H953.466V91.7385H945.6ZM966.373 100.541V98.2905H961.963V98.2545L963.043 97.3545C964.735 95.8425 966.157 94.2765 966.157 92.3145C966.157 90.1905 964.699 88.6425 962.053 88.6425C960.469 88.6425 959.101 89.1825 958.219 89.8485L958.993 91.8105C959.605 91.3425 960.487 90.8385 961.495 90.8385C962.845 90.8385 963.421 91.5945 963.421 92.5485C963.385 93.9165 962.143 95.2305 959.587 97.5165L958.075 98.8845V100.541H966.373Z" fill="white"/>
<g filter="url(#filter5_d)">
<rect x="892.807" y="110.541" width="368" height="67.9546" rx="8" fill="white" fill-opacity="0.9"/>
</g>
<line x1="92.8621" y1="295.95" x2="460.862" y2="295.95" stroke="#EEEEEE"/>
<line x1="492.835" y1="269.396" x2="860.835" y2="269.396" stroke="#EEEEEE"/>
<line x1="492.835" y1="174.94" x2="860.835" y2="174.94" stroke="#EEEEEE"/>
<line x1="492.835" y1="337.351" x2="860.835" y2="337.351" stroke="#EEEEEE"/>
<circle cx="1240.63" cy="28.0899" r="20.1778" fill="#F8F8F8"/>
<path d="M1231.67 24.6698L1230.49 22.5068V35.5898H1229.02V20.8898H1231.08L1237.5 31.8098L1238.68 33.9728V20.8898H1240.15V35.5898H1238.09L1231.67 24.6698ZM1252.03 31.3268H1245.63L1244.08 35.5898H1242.56L1248.02 20.8898H1249.7L1255.16 35.5898H1253.61L1252.03 31.3268ZM1246.13 29.9828H1251.55L1250.06 25.9298L1248.84 22.5698L1247.62 25.9298L1246.13 29.9828Z" fill="black"/>
<path fill-rule="evenodd" clip-rule="evenodd" d="M1182.13 25.5127C1182.13 21.4535 1179.89 18.6362 1176.99 17.7904C1176.89 17.5191 1176.72 17.2668 1176.5 17.0551C1175.73 16.3319 1174.53 16.3319 1173.76 17.0551C1173.53 17.2663 1173.37 17.5179 1173.26 17.7886C1170.36 18.6307 1168.13 21.4419 1168.13 25.5127C1168.13 28.1466 1167.6 29.6225 1166.61 30.692C1166.45 30.8708 1166 31.2805 1165.7 31.558L1165.7 31.558L1165.7 31.558L1165.7 31.5581C1165.56 31.6893 1165.45 31.791 1165.41 31.8246L1165.13 32.1167V35.5268H1171.21C1171.42 36.5888 1172 37.2994 1173.04 37.9353C1174.32 38.7176 1175.93 38.7176 1177.21 37.9353C1178.13 37.3741 1178.75 36.5116 1179 35.5268H1185.13V32.1167L1184.84 31.8246C1184.81 31.7939 1184.7 31.6961 1184.56 31.5682C1184.26 31.2908 1183.81 30.8719 1183.64 30.6896C1182.66 29.6151 1182.13 28.1373 1182.13 25.5127ZM1176.86 35.5268H1173.31C1173.45 35.7896 1173.69 35.9881 1174.08 36.2281C1174.72 36.62 1175.53 36.62 1176.17 36.2281C1176.47 36.0466 1176.7 35.8064 1176.86 35.5268ZM1182.17 32.0401C1182.38 32.27 1182.83 32.6901 1183.13 32.9646V33.5268H1167.13V32.9651C1167.42 32.6938 1167.88 32.274 1168.09 32.0454C1169.42 30.5921 1170.13 28.6305 1170.13 25.5127C1170.13 21.7326 1172.46 19.5251 1175.13 19.5251C1177.79 19.5251 1180.13 21.744 1180.13 25.5127C1180.13 28.6205 1180.83 30.5827 1182.17 32.0401Z" fill="white"/>
<circle cx="1185.13" cy="36.455" r="4.21232" fill="white"/>
<path fill-rule="evenodd" clip-rule="evenodd" d="M1067.13 28.5127C1067.13 35.1401 1072.5 40.5127 1079.13 40.5127C1085.75 40.5127 1091.13 35.1401 1091.13 28.5127C1091.13 21.8853 1085.75 16.5127 1079.13 16.5127C1072.5 16.5127 1067.13 21.8853 1067.13 28.5127ZM1088.94 28.5127C1088.94 33.9351 1084.55 38.3308 1079.13 38.3308C1073.7 38.3308 1069.31 33.9351 1069.31 28.5127C1069.31 23.0902 1073.7 18.6945 1079.13 18.6945C1084.55 18.6945 1088.94 23.0902 1088.94 28.5127ZM1079.13 33.9654C1079.73 33.9654 1080.22 33.477 1080.22 32.8745C1080.22 32.272 1079.73 31.7836 1079.13 31.7836C1078.52 31.7836 1078.04 32.272 1078.04 32.8745C1078.04 33.477 1078.52 33.9654 1079.13 33.9654ZM1078.04 30.6945H1080.22C1080.22 29.8236 1080.35 29.664 1081.25 29.2157C1082.81 28.4367 1083.49 27.6418 1083.49 25.7854C1083.49 23.4079 1081.62 21.9673 1079.13 21.9673C1076.72 21.9673 1074.76 23.9209 1074.76 26.3309H1076.94C1076.94 25.1259 1077.92 24.1491 1079.13 24.1491C1080.52 24.1491 1081.31 24.7561 1081.31 25.7854C1081.31 26.6564 1081.17 26.816 1080.28 27.2643C1078.72 28.0433 1078.04 28.8382 1078.04 30.6945Z" fill="white"/>
<path fill-rule="evenodd" clip-rule="evenodd" d="M1138.18 22.371C1139.44 23.0752 1139.44 24.6593 1138.18 25.3635L1136.55 26.2672L1138.18 27.1709C1139.44 27.8752 1139.44 29.4592 1138.18 30.1635L1136.55 31.0672L1138.18 31.9709C1139.44 32.6752 1139.44 34.2592 1138.18 34.9635L1128.51 40.3309C1127.71 40.7793 1126.55 40.7793 1125.74 40.3309L1116.08 34.9635C1114.81 34.2592 1114.81 32.6752 1116.08 31.9709L1117.7 31.0672L1116.08 30.1635C1114.81 29.4592 1114.81 27.8752 1116.08 27.1709L1117.7 26.2672L1116.08 25.3635C1114.81 24.6593 1114.81 23.0752 1116.08 22.371L1125.74 17.0035C1126.55 16.5551 1127.71 16.5551 1128.51 17.0035L1138.18 22.371ZM1128.51 30.731L1134.08 27.64L1135.93 28.6672L1134.08 29.6945L1131.61 31.0672L1127.35 33.4329C1127.27 33.4786 1126.99 33.4786 1126.9 33.4329L1122.65 31.0672L1120.18 29.6945L1118.33 28.6672L1120.18 27.64L1125.74 30.731C1126.55 31.1793 1127.71 31.1793 1128.51 30.731ZM1120.18 32.44L1118.33 33.4672L1126.9 38.2329C1126.99 38.2786 1127.27 38.2786 1127.35 38.2329L1135.93 33.4672L1134.08 32.44L1128.51 35.5309C1127.71 35.9793 1126.55 35.9793 1125.74 35.5309L1120.18 32.44ZM1126.9 19.1015C1126.99 19.0558 1127.27 19.0558 1127.35 19.1015L1135.93 23.8672L1127.35 28.633C1127.27 28.6787 1126.99 28.6787 1126.9 28.633L1118.33 23.8672L1126.9 19.1015Z" fill="white"/>
<path fill-rule="evenodd" clip-rule="evenodd" d="M117.138 13.5217C119.236 13.3905 121.305 14.119 122.864 15.5467C124.291 17.1055 125.02 19.1741 124.903 21.2865V34.8933C125.034 37.0057 124.291 39.0744 122.878 40.6332C121.319 42.0609 119.236 42.7893 117.138 42.6582H103.531C101.419 42.7893 99.3503 42.0609 97.7915 40.6332C96.3638 39.0744 95.6354 37.0057 95.7665 34.8933V21.2865C95.6354 19.1741 96.3638 17.1055 97.7915 15.5467C99.3503 14.119 101.419 13.3905 103.531 13.5217H117.138ZM108.849 35.1555L118.653 25.322C119.542 24.4187 119.542 22.9619 118.653 22.0732L116.76 20.1794C115.856 19.2761 114.399 19.2761 113.496 20.1794L112.52 21.17C112.374 21.3157 112.374 21.5633 112.52 21.709C112.52 21.709 114.836 24.0108 114.88 24.0691C115.04 24.2439 115.142 24.477 115.142 24.7392C115.142 25.2637 114.72 25.7007 114.181 25.7007C113.933 25.7007 113.7 25.5987 113.54 25.4385L111.107 23.0202C110.99 22.9036 110.786 22.9036 110.67 23.0202L103.721 29.9692C103.24 30.45 102.963 31.091 102.949 31.7757L102.861 35.2284C102.861 35.4178 102.92 35.5926 103.051 35.7237C103.182 35.8548 103.357 35.9276 103.546 35.9276H106.97C107.669 35.9276 108.339 35.6508 108.849 35.1555Z" fill="white"/>
<line x1="110.321" y1="133.408" x2="313.69" y2="133.408" stroke="#868CC0" stroke-width="8" stroke-linecap="round"/>
<line x1="512.835" y1="290.927" x2="716.204" y2="290.927" stroke="#868CC0" stroke-width="8" stroke-linecap="round"/>
<line x1="912.807" y1="133.408" x2="1116.18" y2="133.408" stroke="#868CC0" stroke-width="8" stroke-linecap="round"/>
<line x1="512.835" y1="133.408" x2="582.289" y2="133.408" stroke="#868CC0" stroke-width="8" stroke-linecap="round"/>
<line x1="110.321" y1="251.773" x2="313.69" y2="251.773" stroke="#868CC0" stroke-width="8" stroke-linecap="round"/>
<line x1="110.321" y1="318.778" x2="313.69" y2="318.778" stroke="#868CC0" stroke-width="8" stroke-linecap="round"/>
<line x1="512.835" y1="198.495" x2="716.204" y2="198.495" stroke="#868CC0" stroke-width="8" stroke-linecap="round"/>
<line x1="512.835" y1="359.894" x2="716.204" y2="359.894" stroke="#868CC0" stroke-width="8" stroke-linecap="round"/>
<line x1="331.756" y1="133.408" x2="390.552" y2="133.408" stroke="#868CC0" stroke-width="8" stroke-linecap="round"/>
<line x1="734.269" y1="290.927" x2="793.066" y2="290.927" stroke="#868CC0" stroke-width="8" stroke-linecap="round"/>
<line x1="1134.24" y1="133.408" x2="1193.04" y2="133.408" stroke="#868CC0" stroke-width="8" stroke-linecap="round"/>
<line x1="601.41" y1="133.408" x2="700.082" y2="133.408" stroke="#868CC0" stroke-width="8" stroke-linecap="round"/>
<line x1="721.405" y1="133.408" x2="798.06" y2="133.408" stroke="#868CC0" stroke-width="8" stroke-linecap="round"/>
<line x1="331.756" y1="251.773" x2="390.552" y2="251.773" stroke="#868CC0" stroke-width="8" stroke-linecap="round"/>
<line x1="331.756" y1="318.778" x2="390.552" y2="318.778" stroke="#868CC0" stroke-width="8" stroke-linecap="round"/>
<line x1="734.269" y1="198.495" x2="793.066" y2="198.495" stroke="#868CC0" stroke-width="8" stroke-linecap="round"/>
<line x1="734.269" y1="359.894" x2="793.066" y2="359.894" stroke="#868CC0" stroke-width="8" stroke-linecap="round"/>
<line x1="110.321" y1="154.308" x2="196.568" y2="154.308" stroke="#868CC0" stroke-width="8" stroke-linecap="round"/>
<line x1="512.835" y1="311.826" x2="599.081" y2="311.826" stroke="#868CC0" stroke-width="8" stroke-linecap="round"/>
<line x1="912.807" y1="154.308" x2="999.054" y2="154.308" stroke="#868CC0" stroke-width="8" stroke-linecap="round"/>
<line x1="512.835" y1="154.308" x2="668.524" y2="154.308" stroke="#868CC0" stroke-width="8" stroke-linecap="round"/>
<line x1="110.321" y1="272.673" x2="196.568" y2="272.673" stroke="#868CC0" stroke-width="8" stroke-linecap="round"/>
<line x1="110.321" y1="339.678" x2="196.568" y2="339.678" stroke="#868CC0" stroke-width="8" stroke-linecap="round"/>
<line x1="512.835" y1="219.395" x2="599.081" y2="219.395" stroke="#868CC0" stroke-width="8" stroke-linecap="round"/>
<line x1="512.835" y1="380.793" x2="599.081" y2="380.793" stroke="#868CC0" stroke-width="8" stroke-linecap="round"/>
<line x1="216.006" y1="154.308" x2="357.154" y2="154.308" stroke="#868CC0" stroke-width="8" stroke-linecap="round"/>
<line x1="618.519" y1="311.826" x2="759.667" y2="311.826" stroke="#868CC0" stroke-width="8" stroke-linecap="round"/>
<line x1="1018.49" y1="154.308" x2="1159.64" y2="154.308" stroke="#868CC0" stroke-width="8" stroke-linecap="round"/>
<line x1="687.507" y1="154.308" x2="828.656" y2="154.308" stroke="#868CC0" stroke-width="8" stroke-linecap="round"/>
<line x1="216.006" y1="272.673" x2="357.154" y2="272.673" stroke="#868CC0" stroke-width="8" stroke-linecap="round"/>
<line x1="216.006" y1="339.678" x2="357.154" y2="339.678" stroke="#868CC0" stroke-width="8" stroke-linecap="round"/>
<line x1="618.519" y1="219.395" x2="759.667" y2="219.395" stroke="#868CC0" stroke-width="8" stroke-linecap="round"/>
<line x1="618.519" y1="380.793" x2="759.667" y2="380.793" stroke="#868CC0" stroke-width="8" stroke-linecap="round"/>
<line x1="110.321" y1="361.149" x2="416.08" y2="361.149" stroke="#868CC0" stroke-width="8" stroke-linecap="round"/>
<line x1="512.835" y1="240.867" x2="818.593" y2="240.867" stroke="#868CC0" stroke-width="8" stroke-linecap="round"/>
<line x1="512.835" y1="402.265" x2="818.593" y2="402.265" stroke="#868CC0" stroke-width="8" stroke-linecap="round"/>
<g opacity="0.9" filter="url(#filter6_d)">
<rect x="904.188" y="341.243" width="452.108" height="312.21" rx="7.61797" fill="white"/>
</g>
<rect x="929.356" y="441.708" width="403.88" height="30.9594" rx="7.6191" fill="#F9F9F9" stroke="#415DDD" stroke-width="0.761797"/>
<rect x="929.356" y="512.554" width="403.88" height="30.9597" rx="7.6191" fill="#F9F9F9" stroke="#415DDC" stroke-width="0.761797"/>
<path d="M928.974 590.746C928.974 586.328 932.556 582.746 936.974 582.746H1018.48C1022.9 582.746 1026.48 586.328 1026.48 590.746V606.742C1026.48 611.16 1022.9 614.742 1018.48 614.742H936.974C932.556 614.742 928.974 611.16 928.974 606.742V590.746Z" fill="#38A0FF"/>
<path fill-rule="evenodd" clip-rule="evenodd" d="M1320.45 371.358H1329.12C1332.51 371.358 1334.78 373.738 1334.78 377.278V385.449C1334.78 388.979 1332.51 391.358 1329.12 391.358H1320.45C1317.06 391.358 1314.78 388.979 1314.78 385.449V377.278C1314.78 373.738 1317.06 371.358 1320.45 371.358ZM1327.79 384.358C1328.13 384.019 1328.13 383.469 1327.79 383.129L1326.01 381.349L1327.79 379.568C1328.13 379.229 1328.13 378.669 1327.79 378.329C1327.45 377.988 1326.9 377.988 1326.55 378.329L1324.78 380.108L1323 378.329C1322.65 377.988 1322.1 377.988 1321.76 378.329C1321.42 378.669 1321.42 379.229 1321.76 379.568L1323.54 381.349L1321.76 383.119C1321.42 383.469 1321.42 384.019 1321.76 384.358C1321.93 384.528 1322.16 384.619 1322.38 384.619C1322.61 384.619 1322.83 384.528 1323 384.358L1324.78 382.589L1326.56 384.358C1326.73 384.539 1326.95 384.619 1327.17 384.619C1327.4 384.619 1327.62 384.528 1327.79 384.358Z" fill="#200E32"/>
<path d="M936.366 379.422C935.324 379.422 934.518 379.815 933.947 380.6C933.375 381.38 933.09 382.469 933.09 383.868C933.09 386.778 934.182 388.233 936.366 388.233C937.282 388.233 938.392 388.004 939.696 387.546V389.867C938.625 390.313 937.428 390.536 936.107 390.536C934.208 390.536 932.756 389.962 931.751 388.813C930.745 387.659 930.242 386.004 930.242 383.85C930.242 382.493 930.489 381.306 930.983 380.288C931.477 379.264 932.185 378.482 933.107 377.94C934.036 377.392 935.122 377.119 936.366 377.119C937.634 377.119 938.907 377.425 940.187 378.038L939.294 380.288C938.806 380.056 938.315 379.853 937.821 379.681C937.327 379.508 936.842 379.422 936.366 379.422ZM944.436 385.35C944.436 386.338 944.597 387.085 944.918 387.59C945.246 388.096 945.775 388.349 946.507 388.349C947.233 388.349 947.754 388.099 948.07 387.599C948.391 387.093 948.552 386.344 948.552 385.35C948.552 384.362 948.391 383.621 948.07 383.127C947.748 382.633 947.222 382.386 946.489 382.386C945.763 382.386 945.24 382.633 944.918 383.127C944.597 383.615 944.436 384.356 944.436 385.35ZM951.337 385.35C951.337 386.974 950.909 388.245 950.051 389.162C949.194 390.078 948.001 390.536 946.472 390.536C945.513 390.536 944.668 390.328 943.936 389.912C943.204 389.489 942.642 388.885 942.249 388.099C941.856 387.314 941.66 386.397 941.66 385.35C941.66 383.719 942.085 382.451 942.936 381.547C943.787 380.642 944.984 380.19 946.525 380.19C947.483 380.19 948.329 380.398 949.061 380.815C949.793 381.231 950.355 381.829 950.748 382.609C951.141 383.389 951.337 384.302 951.337 385.35ZM956.068 384.216C957.098 384.216 957.827 384.133 958.256 383.966C958.69 383.799 958.907 383.534 958.907 383.171C958.907 382.85 958.75 382.609 958.434 382.448C958.119 382.288 957.598 382.207 956.872 382.207C956.414 382.207 955.893 382.264 955.31 382.377C954.732 382.49 954.206 382.645 953.73 382.841L952.926 380.94C953.634 380.672 954.322 380.481 954.988 380.368C955.655 380.249 956.399 380.19 957.22 380.19C958.464 380.19 959.461 380.428 960.211 380.904C960.961 381.38 961.336 382.026 961.336 382.841C961.336 383.966 960.672 384.698 959.345 385.037V385.127C960.16 385.329 960.74 385.618 961.086 385.992C961.437 386.361 961.612 386.847 961.612 387.448C961.612 388.055 961.416 388.593 961.023 389.063C960.63 389.534 960.062 389.897 959.318 390.153C958.574 390.408 957.699 390.536 956.693 390.536C955.027 390.536 953.747 390.331 952.855 389.92V387.671C953.366 387.909 953.926 388.096 954.533 388.233C955.146 388.37 955.738 388.439 956.31 388.439C957.196 388.439 957.86 388.34 958.3 388.144C958.741 387.942 958.961 387.656 958.961 387.287C958.961 386.882 958.729 386.585 958.265 386.394C957.8 386.198 957.086 386.1 956.122 386.1H955.069V384.216H956.068ZM969.995 388.367V382.422H967.951C967.802 383.529 967.597 384.579 967.335 385.573C967.079 386.567 966.722 387.498 966.263 388.367H969.995ZM974.182 393.938H971.736V390.358H965.023V393.938H962.576V388.367H963.416C963.987 387.48 964.466 386.361 964.853 385.01C965.24 383.659 965.511 382.115 965.665 380.377H972.718V388.367H974.182V393.938ZM982.225 390.358L981.699 389.001H981.627C981.169 389.578 980.696 389.98 980.208 390.206C979.726 390.426 979.095 390.536 978.315 390.536C977.357 390.536 976.601 390.263 976.048 389.715C975.5 389.168 975.226 388.388 975.226 387.376C975.226 386.317 975.595 385.537 976.333 385.037C977.077 384.531 978.196 384.252 979.69 384.198L981.422 384.145V383.707C981.422 382.695 980.904 382.189 979.869 382.189C979.071 382.189 978.134 382.43 977.057 382.913L976.155 381.074C977.304 380.472 978.577 380.172 979.976 380.172C981.315 380.172 982.342 380.463 983.056 381.047C983.77 381.63 984.127 382.517 984.127 383.707V390.358H982.225ZM981.422 385.734L980.369 385.769C979.577 385.793 978.988 385.936 978.601 386.198C978.214 386.46 978.021 386.858 978.021 387.394C978.021 388.162 978.461 388.546 979.342 388.546C979.973 388.546 980.476 388.364 980.851 388.001C981.232 387.638 981.422 387.156 981.422 386.555V385.734ZM995.197 380.377V382.422H991.929V390.358H989.207V382.422H985.93V380.377H995.197ZM999.786 384.234H1001.7C1003.24 384.234 1004.38 384.478 1005.12 384.966C1005.85 385.454 1006.22 386.192 1006.22 387.18C1006.22 389.299 1004.75 390.358 1001.81 390.358H997.063V380.377H999.786V384.234ZM1003.5 387.215C1003.5 386.829 1003.34 386.549 1003.04 386.376C1002.73 386.204 1002.26 386.117 1001.65 386.117H999.786V388.474H1001.69C1002.9 388.474 1003.5 388.055 1003.5 387.215ZM1019.29 388.367V382.422H1017.25C1017.1 383.529 1016.89 384.579 1016.63 385.573C1016.38 386.567 1016.02 387.498 1015.56 388.367H1019.29ZM1023.48 393.938H1021.03V390.358H1014.32V393.938H1011.87V388.367H1012.71C1013.28 387.48 1013.76 386.361 1014.15 385.01C1014.54 383.659 1014.81 382.115 1014.96 380.377H1022.01V388.367H1023.48V393.938ZM1027.35 385.35C1027.35 386.338 1027.51 387.085 1027.84 387.59C1028.16 388.096 1028.69 388.349 1029.42 388.349C1030.15 388.349 1030.67 388.099 1030.99 387.599C1031.31 387.093 1031.47 386.344 1031.47 385.35C1031.47 384.362 1031.31 383.621 1030.99 383.127C1030.67 382.633 1030.14 382.386 1029.41 382.386C1028.68 382.386 1028.16 382.633 1027.84 383.127C1027.51 383.615 1027.35 384.356 1027.35 385.35ZM1034.25 385.35C1034.25 386.974 1033.83 388.245 1032.97 389.162C1032.11 390.078 1030.92 390.536 1029.39 390.536C1028.43 390.536 1027.59 390.328 1026.85 389.912C1026.12 389.489 1025.56 388.885 1025.17 388.099C1024.77 387.314 1024.58 386.397 1024.58 385.35C1024.58 383.719 1025 382.451 1025.85 381.547C1026.7 380.642 1027.9 380.19 1029.44 380.19C1030.4 380.19 1031.25 380.398 1031.98 380.815C1032.71 381.231 1033.27 381.829 1033.66 382.609C1034.06 383.389 1034.25 384.302 1034.25 385.35ZM1040.56 390.536C1037.45 390.536 1035.9 388.831 1035.9 385.421C1035.9 383.725 1036.32 382.43 1037.16 381.538C1038.01 380.639 1039.22 380.19 1040.8 380.19C1041.95 380.19 1042.99 380.416 1043.9 380.868L1043.1 382.975C1042.67 382.802 1042.27 382.663 1041.9 382.555C1041.54 382.442 1041.17 382.386 1040.8 382.386C1039.38 382.386 1038.67 383.392 1038.67 385.403C1038.67 387.355 1039.38 388.331 1040.8 388.331C1041.32 388.331 1041.81 388.263 1042.25 388.126C1042.7 387.983 1043.15 387.763 1043.59 387.465V389.795C1043.15 390.075 1042.71 390.269 1042.25 390.376C1041.81 390.483 1041.24 390.536 1040.56 390.536ZM1052.46 380.377H1055.46L1051.5 385.162L1055.8 390.358H1052.72L1048.64 385.296V390.358H1045.91V380.377H1048.64V385.225L1052.46 380.377ZM1055.8 380.377H1058.79L1060.67 385.992C1060.83 386.48 1060.94 387.058 1061 387.724H1061.05C1061.12 387.111 1061.25 386.534 1061.44 385.992L1063.29 380.377H1066.2L1061.98 391.635C1061.6 392.676 1061.04 393.456 1060.32 393.973C1059.61 394.491 1058.77 394.75 1057.81 394.75C1057.34 394.75 1056.88 394.7 1056.43 394.598V392.438C1056.76 392.515 1057.11 392.554 1057.5 392.554C1057.98 392.554 1058.4 392.405 1058.76 392.108C1059.12 391.816 1059.41 391.373 1059.61 390.777L1059.77 390.286L1055.8 380.377Z" fill="black"/>
<path d="M937.277 433.327H935.467V429.63H932.074V433.327H930.258V424.76H932.074V428.118H935.467V424.76H937.277V433.327ZM943.465 433.327L943.119 432.436H943.072C942.771 432.815 942.461 433.079 942.14 433.227C941.824 433.372 941.41 433.444 940.898 433.444C940.269 433.444 939.773 433.264 939.41 432.905C939.051 432.546 938.871 432.034 938.871 431.37C938.871 430.675 939.113 430.163 939.597 429.835C940.086 429.503 940.82 429.319 941.801 429.284L942.937 429.249V428.962C942.937 428.298 942.597 427.966 941.918 427.966C941.394 427.966 940.779 428.124 940.072 428.44L939.48 427.233C940.234 426.839 941.07 426.641 941.988 426.641C942.867 426.641 943.541 426.833 944.01 427.216C944.478 427.598 944.713 428.18 944.713 428.962V433.327H943.465ZM942.937 430.292L942.246 430.315C941.726 430.331 941.34 430.425 941.086 430.596C940.832 430.768 940.705 431.03 940.705 431.382C940.705 431.885 940.994 432.137 941.572 432.137C941.986 432.137 942.316 432.018 942.562 431.78C942.812 431.542 942.937 431.225 942.937 430.831V430.292ZM948.187 429.296C948.863 429.296 949.342 429.241 949.623 429.132C949.908 429.022 950.051 428.848 950.051 428.61C950.051 428.399 949.947 428.241 949.74 428.135C949.533 428.03 949.191 427.977 948.715 427.977C948.414 427.977 948.072 428.014 947.689 428.089C947.31 428.163 946.965 428.264 946.652 428.393L946.125 427.145C946.59 426.969 947.041 426.844 947.478 426.77C947.916 426.692 948.404 426.653 948.943 426.653C949.76 426.653 950.414 426.809 950.906 427.122C951.398 427.434 951.644 427.858 951.644 428.393C951.644 429.132 951.209 429.612 950.338 429.835V429.893C950.873 430.026 951.254 430.216 951.48 430.462C951.711 430.704 951.826 431.022 951.826 431.417C951.826 431.815 951.697 432.169 951.439 432.477C951.181 432.786 950.808 433.024 950.32 433.192C949.832 433.36 949.258 433.444 948.597 433.444C947.504 433.444 946.664 433.309 946.078 433.04V431.563C946.414 431.719 946.781 431.843 947.179 431.932C947.582 432.022 947.97 432.067 948.345 432.067C948.927 432.067 949.363 432.003 949.652 431.874C949.941 431.741 950.086 431.553 950.086 431.311C950.086 431.046 949.933 430.85 949.629 430.725C949.324 430.596 948.855 430.532 948.222 430.532H947.531V429.296H948.187ZM959.273 428.493C959.273 428.844 959.162 429.145 958.939 429.395C958.72 429.641 958.396 429.8 957.967 429.87V429.917C958.431 429.971 958.799 430.132 959.068 430.397C959.342 430.659 959.478 430.983 959.478 431.37C959.478 432.007 959.228 432.493 958.728 432.829C958.228 433.161 957.513 433.327 956.584 433.327H953.226V426.776H956.584C957.482 426.776 958.154 426.923 958.599 427.216C959.049 427.505 959.273 427.93 959.273 428.493ZM957.627 431.276C957.627 431.018 957.527 430.833 957.328 430.719C957.129 430.602 956.83 430.544 956.431 430.544H955.013V432.091H956.467C956.845 432.091 957.133 432.02 957.328 431.88C957.527 431.735 957.627 431.534 957.627 431.276ZM957.463 428.634C957.463 428.235 957.146 428.036 956.513 428.036H955.013V429.331H956.308C956.687 429.331 956.974 429.276 957.17 429.167C957.365 429.057 957.463 428.88 957.463 428.634ZM965.062 433.327L964.717 432.436H964.67C964.369 432.815 964.058 433.079 963.738 433.227C963.422 433.372 963.008 433.444 962.496 433.444C961.867 433.444 961.371 433.264 961.008 432.905C960.648 432.546 960.469 432.034 960.469 431.37C960.469 430.675 960.711 430.163 961.195 429.835C961.683 429.503 962.418 429.319 963.398 429.284L964.535 429.249V428.962C964.535 428.298 964.195 427.966 963.515 427.966C962.992 427.966 962.377 428.124 961.67 428.44L961.078 427.233C961.832 426.839 962.668 426.641 963.586 426.641C964.465 426.641 965.138 426.833 965.607 427.216C966.076 427.598 966.31 428.18 966.31 428.962V433.327H965.062ZM964.535 430.292L963.844 430.315C963.324 430.331 962.937 430.425 962.683 430.596C962.429 430.768 962.302 431.03 962.302 431.382C962.302 431.885 962.592 432.137 963.17 432.137C963.584 432.137 963.914 432.018 964.16 431.78C964.41 431.542 964.535 431.225 964.535 430.831V430.292ZM969.943 426.776V429.296H972.439V426.776H974.226V433.327H972.439V430.626H969.943V433.327H968.156V426.776H969.943ZM977.83 426.776V429.366C977.83 429.639 977.785 430.307 977.695 431.37L980.719 426.776H982.869V433.327H981.14V430.714C981.14 430.249 981.179 429.593 981.258 428.745L978.246 433.327H976.101V426.776H977.83ZM987.463 427.925C987.084 427.925 986.787 428.046 986.572 428.288C986.357 428.526 986.234 428.866 986.203 429.307H988.711C988.703 428.866 988.588 428.526 988.365 428.288C988.142 428.046 987.842 427.925 987.463 427.925ZM987.715 433.444C986.66 433.444 985.836 433.153 985.242 432.571C984.648 431.989 984.351 431.165 984.351 430.098C984.351 429.001 984.625 428.153 985.172 427.555C985.722 426.954 986.482 426.653 987.451 426.653C988.377 426.653 989.097 426.917 989.613 427.444C990.129 427.971 990.386 428.7 990.386 429.63V430.497H986.162C986.181 431.005 986.332 431.401 986.613 431.686C986.894 431.971 987.289 432.114 987.797 432.114C988.191 432.114 988.564 432.073 988.916 431.991C989.267 431.909 989.635 431.778 990.017 431.598V432.981C989.705 433.137 989.371 433.253 989.015 433.327C988.66 433.405 988.226 433.444 987.715 433.444ZM999.058 432.02V428.118H997.717C997.619 428.844 997.484 429.534 997.312 430.186C997.144 430.839 996.91 431.45 996.609 432.02H999.058ZM1001.81 435.677H1000.2V433.327H995.795V435.677H994.189V432.02H994.74C995.115 431.438 995.429 430.704 995.683 429.817C995.937 428.93 996.115 427.917 996.217 426.776H1000.85V432.02H1001.81V435.677ZM1004.35 430.04C1004.35 430.688 1004.45 431.178 1004.67 431.51C1004.88 431.843 1005.23 432.009 1005.71 432.009C1006.19 432.009 1006.53 431.844 1006.73 431.516C1006.95 431.184 1007.05 430.692 1007.05 430.04C1007.05 429.391 1006.95 428.905 1006.73 428.581C1006.52 428.257 1006.18 428.094 1005.7 428.094C1005.22 428.094 1004.88 428.257 1004.67 428.581C1004.45 428.901 1004.35 429.387 1004.35 430.04ZM1008.88 430.04C1008.88 431.106 1008.6 431.94 1008.03 432.542C1007.47 433.143 1006.69 433.444 1005.69 433.444C1005.06 433.444 1004.5 433.307 1004.02 433.034C1003.54 432.757 1003.17 432.36 1002.91 431.844C1002.66 431.329 1002.53 430.727 1002.53 430.04C1002.53 428.969 1002.81 428.137 1003.36 427.544C1003.92 426.95 1004.71 426.653 1005.72 426.653C1006.35 426.653 1006.9 426.79 1007.38 427.063C1007.86 427.337 1008.23 427.729 1008.49 428.241C1008.75 428.753 1008.88 429.352 1008.88 430.04ZM1013.02 433.444C1010.98 433.444 1009.96 432.325 1009.96 430.087C1009.96 428.973 1010.23 428.124 1010.79 427.538C1011.34 426.948 1012.14 426.653 1013.17 426.653C1013.93 426.653 1014.61 426.802 1015.21 427.098L1014.69 428.481C1014.4 428.368 1014.14 428.276 1013.9 428.206C1013.66 428.132 1013.42 428.094 1013.17 428.094C1012.24 428.094 1011.78 428.755 1011.78 430.075C1011.78 431.356 1012.24 431.997 1013.17 431.997C1013.52 431.997 1013.84 431.952 1014.13 431.862C1014.42 431.768 1014.71 431.624 1015.01 431.428V432.958C1014.72 433.141 1014.43 433.268 1014.13 433.339C1013.84 433.409 1013.46 433.444 1013.02 433.444ZM1020.83 426.776H1022.79L1020.2 429.917L1023.02 433.327H1021L1018.32 430.005V433.327H1016.53V426.776H1018.32V429.958L1020.83 426.776ZM1025.69 426.776V429.366C1025.69 429.639 1025.64 430.307 1025.55 431.37L1028.58 426.776H1030.73V433.327H1029V430.714C1029 430.249 1029.04 429.593 1029.12 428.745L1026.11 433.327H1023.96V426.776H1025.69Z" fill="black"/>
<path d="M933.562 504.173H931.746V497.118H929.42V495.606H935.888V497.118H933.562V504.173ZM938.795 497.622V500.212C938.795 500.485 938.75 501.153 938.66 502.216L941.683 497.622H943.834V504.173H942.105V501.559C942.105 501.094 942.144 500.438 942.222 499.591L939.211 504.173H937.066V497.622H938.795ZM951.668 497.622V504.173H949.875V498.964H947.502V504.173H945.715V497.622H951.668ZM960.761 502.866V498.964H959.42C959.322 499.69 959.187 500.38 959.015 501.032C958.847 501.684 958.613 502.296 958.312 502.866H960.761ZM963.51 506.522H961.904V504.173H957.498V506.522H955.892V502.866H956.443C956.818 502.284 957.133 501.55 957.386 500.663C957.64 499.776 957.818 498.762 957.92 497.622H962.549V502.866H963.51V506.522ZM966.052 500.885C966.052 501.534 966.158 502.024 966.369 502.356C966.584 502.688 966.931 502.854 967.412 502.854C967.888 502.854 968.23 502.69 968.437 502.362C968.648 502.03 968.754 501.538 968.754 500.885C968.754 500.237 968.648 499.751 968.437 499.427C968.226 499.102 967.881 498.94 967.4 498.94C966.924 498.94 966.58 499.102 966.369 499.427C966.158 499.747 966.052 500.233 966.052 500.885ZM970.582 500.885C970.582 501.952 970.301 502.786 969.738 503.387C969.176 503.989 968.392 504.29 967.388 504.29C966.76 504.29 966.205 504.153 965.724 503.88C965.244 503.602 964.875 503.206 964.617 502.69C964.359 502.175 964.23 501.573 964.23 500.885C964.23 499.815 964.51 498.983 965.068 498.389C965.627 497.796 966.412 497.499 967.424 497.499C968.052 497.499 968.607 497.635 969.088 497.909C969.568 498.182 969.937 498.575 970.195 499.087C970.453 499.598 970.582 500.198 970.582 500.885ZM974.719 504.29C972.679 504.29 971.66 503.171 971.66 500.932C971.66 499.819 971.937 498.969 972.492 498.384C973.047 497.794 973.842 497.499 974.877 497.499C975.635 497.499 976.314 497.647 976.916 497.944L976.388 499.327C976.107 499.214 975.845 499.122 975.603 499.052C975.361 498.977 975.119 498.94 974.877 498.94C973.947 498.94 973.482 499.6 973.482 500.921C973.482 502.202 973.947 502.843 974.877 502.843C975.22 502.843 975.539 502.798 975.832 502.708C976.125 502.614 976.418 502.469 976.711 502.274V503.803C976.422 503.987 976.129 504.114 975.832 504.184C975.539 504.255 975.168 504.29 974.719 504.29ZM982.529 497.622H984.498L981.902 500.762L984.726 504.173H982.699L980.021 500.85V504.173H978.234V497.622H980.021V500.803L982.529 497.622ZM987.392 497.622V500.212C987.392 500.485 987.347 501.153 987.258 502.216L990.281 497.622H992.431V504.173H990.703V501.559C990.703 501.094 990.742 500.438 990.82 499.591L987.808 504.173H985.664V497.622H987.392Z" fill="black"/>
<path d="M959.075 595.945C958.134 595.945 957.39 596.26 956.843 596.888C956.3 597.513 956.028 598.371 956.028 599.461C956.028 600.582 956.29 601.449 956.813 602.062C957.341 602.672 958.091 602.976 959.063 602.976C959.661 602.976 960.343 602.869 961.108 602.654V603.527C960.515 603.75 959.782 603.861 958.911 603.861C957.649 603.861 956.675 603.478 955.987 602.713C955.304 601.947 954.962 600.859 954.962 599.449C954.962 598.566 955.126 597.793 955.454 597.129C955.786 596.465 956.263 595.953 956.884 595.594C957.509 595.234 958.243 595.054 959.087 595.054C959.985 595.054 960.77 595.219 961.442 595.547L961.02 596.402C960.372 596.097 959.724 595.945 959.075 595.945ZM968.374 600.527C968.374 601.574 968.11 602.392 967.583 602.982C967.056 603.568 966.327 603.861 965.397 603.861C964.823 603.861 964.313 603.726 963.868 603.457C963.423 603.187 963.079 602.801 962.837 602.297C962.595 601.793 962.474 601.203 962.474 600.527C962.474 599.48 962.735 598.666 963.259 598.084C963.782 597.498 964.509 597.205 965.438 597.205C966.337 597.205 967.05 597.504 967.577 598.101C968.108 598.699 968.374 599.508 968.374 600.527ZM963.481 600.527C963.481 601.347 963.645 601.972 963.974 602.402C964.302 602.832 964.784 603.047 965.421 603.047C966.057 603.047 966.54 602.834 966.868 602.408C967.2 601.978 967.366 601.351 967.366 600.527C967.366 599.711 967.2 599.092 966.868 598.67C966.54 598.244 966.054 598.031 965.409 598.031C964.772 598.031 964.292 598.24 963.968 598.658C963.643 599.076 963.481 599.699 963.481 600.527ZM971.309 599.988C972.524 599.988 973.132 599.652 973.132 598.98C973.132 598.347 972.64 598.031 971.655 598.031C971.354 598.031 971.081 598.058 970.835 598.113C970.589 598.168 970.266 598.277 969.868 598.441L969.522 597.65C970.186 597.353 970.911 597.205 971.696 597.205C972.434 597.205 973.016 597.357 973.442 597.662C973.868 597.963 974.081 598.375 974.081 598.898C974.081 599.617 973.681 600.088 972.88 600.31V600.357C973.372 600.502 973.731 600.709 973.958 600.978C974.184 601.244 974.298 601.578 974.298 601.98C974.298 602.574 974.057 603.037 973.577 603.369C973.1 603.697 972.44 603.861 971.597 603.861C970.671 603.861 969.956 603.722 969.452 603.445V602.554C970.167 602.89 970.89 603.058 971.62 603.058C972.182 603.058 972.606 602.963 972.891 602.771C973.181 602.576 973.325 602.297 973.325 601.933C973.325 601.187 972.718 600.814 971.503 600.814H970.612V599.988H971.309ZM981.464 605.965H980.52V603.744H976.032V605.965H975.095V602.906H975.599C976.122 602.195 976.532 601.361 976.829 600.404C977.126 599.447 977.28 598.42 977.292 597.322H980.544V602.906H981.464V605.965ZM979.606 602.906V598.09H978.165C978.114 598.957 977.946 599.836 977.661 600.726C977.38 601.613 977.028 602.34 976.606 602.906H979.606ZM986.702 603.744L986.509 602.83H986.462C986.141 603.232 985.821 603.506 985.501 603.65C985.184 603.791 984.788 603.861 984.311 603.861C983.675 603.861 983.175 603.697 982.811 603.369C982.452 603.041 982.272 602.574 982.272 601.969C982.272 600.672 983.309 599.992 985.384 599.929L986.474 599.894V599.496C986.474 598.992 986.364 598.621 986.145 598.383C985.931 598.14 985.585 598.019 985.108 598.019C984.573 598.019 983.968 598.183 983.292 598.511L982.993 597.767C983.309 597.595 983.655 597.461 984.03 597.363C984.409 597.265 984.788 597.217 985.167 597.217C985.932 597.217 986.499 597.386 986.866 597.726C987.237 598.066 987.423 598.611 987.423 599.361V603.744H986.702ZM984.505 603.058C985.11 603.058 985.585 602.892 985.929 602.56C986.276 602.228 986.45 601.763 986.45 601.166V600.586L985.477 600.627C984.704 600.654 984.145 600.775 983.802 600.99C983.462 601.201 983.292 601.531 983.292 601.98C983.292 602.332 983.397 602.599 983.608 602.783C983.823 602.967 984.122 603.058 984.505 603.058ZM993.763 598.154H991.677V603.744H990.704V598.154H988.641V597.322H993.763V598.154ZM996.007 599.976H997.987C999.628 599.976 1000.45 600.58 1000.45 601.787C1000.45 602.42 1000.23 602.904 999.804 603.24C999.378 603.576 998.753 603.744 997.929 603.744H995.034V597.322H996.007V599.976ZM996.007 600.814V602.929H997.882C998.397 602.929 998.792 602.84 999.065 602.66C999.339 602.48 999.475 602.209 999.475 601.845C999.475 601.49 999.349 601.23 999.095 601.066C998.845 600.898 998.431 600.814 997.852 600.814H996.007Z" fill="white"/>
<path d="M1053.75 599.449C1053.75 600.82 1053.4 601.898 1052.7 602.683C1052.01 603.469 1051.05 603.861 1049.81 603.861C1048.55 603.861 1047.58 603.476 1046.89 602.707C1046.21 601.933 1045.87 600.844 1045.87 599.437C1045.87 598.043 1046.21 596.963 1046.9 596.197C1047.58 595.427 1048.56 595.043 1049.83 595.043C1051.06 595.043 1052.02 595.433 1052.71 596.215C1053.4 596.996 1053.75 598.074 1053.75 599.449ZM1046.92 599.449C1046.92 600.609 1047.17 601.49 1047.66 602.092C1048.15 602.689 1048.87 602.988 1049.81 602.988C1050.76 602.988 1051.48 602.689 1051.97 602.092C1052.45 601.494 1052.69 600.613 1052.69 599.449C1052.69 598.297 1052.45 597.424 1051.97 596.83C1051.48 596.232 1050.77 595.933 1049.83 595.933C1048.88 595.933 1048.15 596.234 1047.66 596.836C1047.17 597.433 1046.92 598.304 1046.92 599.449ZM1059.85 598.154H1057.76V603.744H1056.79V598.154H1054.73V597.322H1059.85V598.154ZM1064.45 602.806L1064.63 602.261L1064.89 601.57L1066.63 597.334H1067.86V603.744H1067V598.441L1066.88 598.781L1066.54 599.677L1064.89 603.744H1064.07L1062.41 599.666C1062.21 599.142 1062.06 598.734 1061.98 598.441V603.744H1061.12V597.334H1062.31L1063.99 601.406C1064.16 601.836 1064.31 602.302 1064.45 602.806ZM1072.65 603.861C1071.71 603.861 1070.96 603.572 1070.4 602.994C1069.86 602.416 1069.58 601.613 1069.58 600.586C1069.58 599.551 1069.84 598.728 1070.35 598.119C1070.86 597.51 1071.54 597.205 1072.4 597.205C1073.21 597.205 1073.84 597.47 1074.31 598.002C1074.78 598.529 1075.02 599.226 1075.02 600.094V600.709H1070.59C1070.61 601.463 1070.8 602.035 1071.16 602.426C1071.52 602.816 1072.03 603.011 1072.69 603.011C1073.38 603.011 1074.06 602.867 1074.74 602.578V603.445C1074.4 603.594 1074.07 603.699 1073.76 603.761C1073.46 603.828 1073.09 603.861 1072.65 603.861ZM1072.39 598.019C1071.88 598.019 1071.46 598.187 1071.15 598.523C1070.85 598.859 1070.67 599.324 1070.62 599.918H1073.97C1073.97 599.304 1073.84 598.836 1073.56 598.511C1073.29 598.183 1072.9 598.019 1072.39 598.019ZM1077.65 597.322V600.011H1081.25V597.322H1082.22V603.744H1081.25V600.849H1077.65V603.744H1076.68V597.322H1077.65ZM1088.23 603.744L1088.04 602.83H1087.99C1087.67 603.232 1087.35 603.506 1087.03 603.65C1086.72 603.791 1086.32 603.861 1085.84 603.861C1085.21 603.861 1084.71 603.697 1084.34 603.369C1083.98 603.041 1083.81 602.574 1083.81 601.969C1083.81 600.672 1084.84 599.992 1086.92 599.929L1088.01 599.894V599.496C1088.01 598.992 1087.9 598.621 1087.68 598.383C1087.46 598.14 1087.12 598.019 1086.64 598.019C1086.11 598.019 1085.5 598.183 1084.82 598.511L1084.53 597.767C1084.84 597.595 1085.19 597.461 1085.56 597.363C1085.94 597.265 1086.32 597.217 1086.7 597.217C1087.47 597.217 1088.03 597.386 1088.4 597.726C1088.77 598.066 1088.96 598.611 1088.96 599.361V603.744H1088.23ZM1086.04 603.058C1086.64 603.058 1087.12 602.892 1087.46 602.56C1087.81 602.228 1087.98 601.763 1087.98 601.166V600.586L1087.01 600.627C1086.24 600.654 1085.68 600.775 1085.33 600.99C1084.99 601.201 1084.82 601.531 1084.82 601.98C1084.82 602.332 1084.93 602.599 1085.14 602.783C1085.36 602.967 1085.65 603.058 1086.04 603.058Z" fill="black"/>
<line x1="943.867" y1="457.225" x2="1002.48" y2="457.225" stroke="#868CC0" stroke-width="5" stroke-linecap="round"/>
<line x1="1015.34" y1="457.225" x2="1111.53" y2="457.225" stroke="#868CC0" stroke-width="5" stroke-linecap="round"/>
<line x1="943.867" y1="528.867" x2="1066.7" y2="528.867" stroke="#868CC0" stroke-width="5" stroke-linecap="round"/>
<g opacity="0.9" filter="url(#filter7_d)">
<rect x="25.5476" y="433.278" width="313.843" height="308" rx="10" fill="#F9F9F9"/>
</g>
<path d="M52.8335 509.682H47.9055V518.278H46.5895V508.478H54.1495V518.278H52.8335V509.682ZM61.0822 515.282H57.5822V518.278H56.3222V511.278H57.5822V514.134H61.0822V511.278H62.3422V518.278H61.0822V515.282Z" fill="#838F9F"/>
<path d="M90.5895 508.478H93.7395C94.9621 508.478 95.8395 508.711 96.3715 509.178C96.9035 509.635 97.1695 510.275 97.1695 511.096C97.1695 511.544 97.0668 511.95 96.8615 512.314C96.6561 512.669 96.3388 512.958 95.9095 513.182C96.4415 513.397 96.8288 513.705 97.0715 514.106C97.3235 514.507 97.4495 514.979 97.4495 515.52C97.4495 516.407 97.1835 517.088 96.6515 517.564C96.1195 518.04 95.2421 518.278 94.0195 518.278H90.5895V508.478ZM91.9055 513.826V517.074H94.0195C94.7755 517.074 95.3075 516.939 95.6155 516.668C95.9235 516.397 96.0775 515.991 96.0775 515.45C96.0775 514.909 95.9235 514.503 95.6155 514.232C95.3075 513.961 94.7755 513.826 94.0195 513.826H91.9055ZM91.9055 509.682V512.65H93.7395C94.4955 512.65 95.0275 512.524 95.3355 512.272C95.6435 512.011 95.7975 511.642 95.7975 511.166C95.7975 510.69 95.6435 510.326 95.3355 510.074C95.0275 509.813 94.4955 509.682 93.7395 509.682H91.9055ZM98.1577 511.278H103.898V512.426H101.658V518.278H100.398V512.426H98.1577V511.278Z" fill="#838F9F"/>
<path d="M135.369 518.39C134.763 518.39 134.207 518.287 133.703 518.082C133.199 517.867 132.765 517.564 132.401 517.172C132.037 516.78 131.753 516.299 131.547 515.73C131.342 515.161 131.239 514.512 131.239 513.784V512.972C131.239 512.253 131.342 511.609 131.547 511.04C131.753 510.471 132.037 509.99 132.401 509.598C132.765 509.197 133.199 508.893 133.703 508.688C134.207 508.473 134.763 508.366 135.369 508.366C135.911 508.366 136.401 508.45 136.839 508.618C137.278 508.777 137.661 508.996 137.987 509.276C138.323 509.547 138.594 509.864 138.799 510.228C139.005 510.583 139.145 510.956 139.219 511.348H137.791C137.717 511.124 137.609 510.909 137.469 510.704C137.339 510.499 137.171 510.317 136.965 510.158C136.76 509.999 136.522 509.873 136.251 509.78C135.99 509.677 135.696 509.626 135.369 509.626C134.977 509.626 134.609 509.701 134.263 509.85C133.927 509.99 133.638 510.205 133.395 510.494C133.153 510.774 132.961 511.124 132.821 511.544C132.681 511.955 132.611 512.431 132.611 512.972V513.784C132.611 514.325 132.681 514.806 132.821 515.226C132.961 515.637 133.153 515.987 133.395 516.276C133.647 516.556 133.941 516.771 134.277 516.92C134.613 517.06 134.977 517.13 135.369 517.13C136.023 517.13 136.555 516.943 136.965 516.57C137.376 516.197 137.651 515.716 137.791 515.128H139.219C139.145 515.585 139.005 516.015 138.799 516.416C138.594 516.808 138.323 517.153 137.987 517.452C137.661 517.741 137.273 517.97 136.825 518.138C136.387 518.306 135.901 518.39 135.369 518.39ZM144.286 518.39C143.362 518.39 142.653 518.087 142.158 517.48V521.078H140.898V511.278H141.878L142.004 512.286C142.247 511.913 142.564 511.633 142.956 511.446C143.348 511.259 143.796 511.166 144.3 511.166C144.692 511.166 145.056 511.241 145.392 511.39C145.738 511.53 146.032 511.745 146.274 512.034C146.517 512.314 146.708 512.664 146.848 513.084C146.988 513.495 147.058 513.971 147.058 514.512V515.044C147.058 515.585 146.988 516.066 146.848 516.486C146.708 516.897 146.512 517.247 146.26 517.536C146.018 517.816 145.724 518.031 145.378 518.18C145.042 518.32 144.678 518.39 144.286 518.39ZM143.95 517.186C144.51 517.186 144.949 517.013 145.266 516.668C145.584 516.323 145.742 515.781 145.742 515.044V514.512C145.742 513.784 145.584 513.247 145.266 512.902C144.949 512.547 144.51 512.37 143.95 512.37C143.446 512.37 143.026 512.543 142.69 512.888C142.354 513.233 142.177 513.742 142.158 514.414V515.044C142.158 515.735 142.326 516.267 142.662 516.64C142.998 517.004 143.428 517.186 143.95 517.186Z" fill="#838F9F"/>
<path d="M181.133 514.526C180.862 514.601 180.535 514.671 180.153 514.736C179.779 514.792 179.378 514.82 178.949 514.82C178.333 514.82 177.801 514.755 177.353 514.624C176.914 514.493 176.55 514.283 176.261 513.994C175.981 513.705 175.775 513.341 175.645 512.902C175.514 512.454 175.449 511.913 175.449 511.278V508.478H176.765V511.278C176.765 512.127 176.933 512.729 177.269 513.084C177.614 513.439 178.174 513.616 178.949 513.616C179.369 513.616 179.77 513.588 180.153 513.532C180.535 513.467 180.862 513.397 181.133 513.322V508.478H182.449V518.278H181.133V514.526ZM183.847 511.278H189.587V512.426H187.347V518.278H186.087V512.426H183.847V511.278Z" fill="#838F9F"/>
<path d="M223.333 509.682H218.405V518.278H217.089V508.478H224.649V518.278H223.333V509.682ZM226.052 511.278H231.792V512.426H229.552V518.278H228.292V512.426H226.052V511.278Z" fill="#838F9F"/>
<path d="M264.369 518.39C263.763 518.39 263.207 518.287 262.703 518.082C262.199 517.867 261.765 517.564 261.401 517.172C261.037 516.78 260.753 516.299 260.547 515.73C260.342 515.161 260.239 514.512 260.239 513.784V512.972C260.239 512.253 260.342 511.609 260.547 511.04C260.753 510.471 261.037 509.99 261.401 509.598C261.765 509.197 262.199 508.893 262.703 508.688C263.207 508.473 263.763 508.366 264.369 508.366C264.911 508.366 265.401 508.45 265.839 508.618C266.278 508.777 266.661 508.996 266.987 509.276C267.323 509.547 267.594 509.864 267.799 510.228C268.005 510.583 268.145 510.956 268.219 511.348H266.791C266.717 511.124 266.609 510.909 266.469 510.704C266.339 510.499 266.171 510.317 265.965 510.158C265.76 509.999 265.522 509.873 265.251 509.78C264.99 509.677 264.696 509.626 264.369 509.626C263.977 509.626 263.609 509.701 263.263 509.85C262.927 509.99 262.638 510.205 262.395 510.494C262.153 510.774 261.961 511.124 261.821 511.544C261.681 511.955 261.611 512.431 261.611 512.972V513.784C261.611 514.325 261.681 514.806 261.821 515.226C261.961 515.637 262.153 515.987 262.395 516.276C262.647 516.556 262.941 516.771 263.277 516.92C263.613 517.06 263.977 517.13 264.369 517.13C265.023 517.13 265.555 516.943 265.965 516.57C266.376 516.197 266.651 515.716 266.791 515.128H268.219C268.145 515.585 268.005 516.015 267.799 516.416C267.594 516.808 267.323 517.153 266.987 517.452C266.661 517.741 266.273 517.97 265.825 518.138C265.387 518.306 264.901 518.39 264.369 518.39ZM272.698 518.39C271.7 518.39 270.911 518.073 270.332 517.438C269.763 516.803 269.478 515.819 269.478 514.484V513.672C269.478 513.187 269.502 512.72 269.548 512.272C269.604 511.815 269.698 511.39 269.828 510.998C269.959 510.606 270.132 510.256 270.346 509.948C270.57 509.64 270.85 509.388 271.186 509.192C271.485 509.015 271.779 508.898 272.068 508.842C272.367 508.786 272.68 508.749 273.006 508.73C273.333 508.702 273.683 508.669 274.056 508.632C274.439 508.595 274.868 508.506 275.344 508.366V509.5C274.99 509.631 274.644 509.715 274.308 509.752C273.982 509.78 273.664 509.803 273.356 509.822C273.048 509.841 272.759 509.873 272.488 509.92C272.218 509.957 271.97 510.046 271.746 510.186C271.448 510.382 271.214 510.643 271.046 510.97C270.888 511.297 270.771 511.731 270.696 512.272C270.958 511.945 271.275 511.703 271.648 511.544C272.022 511.385 272.442 511.306 272.908 511.306C273.356 511.306 273.762 511.381 274.126 511.53C274.5 511.679 274.817 511.894 275.078 512.174C275.349 512.454 275.554 512.799 275.694 513.21C275.844 513.611 275.918 514.069 275.918 514.582V515.114C275.918 515.618 275.839 516.075 275.68 516.486C275.531 516.887 275.316 517.228 275.036 517.508C274.756 517.788 274.416 518.007 274.014 518.166C273.622 518.315 273.184 518.39 272.698 518.39ZM272.698 512.51C272.129 512.51 271.672 512.678 271.326 513.014C270.99 513.341 270.813 513.812 270.794 514.428V515.058C270.794 515.749 270.967 516.276 271.312 516.64C271.667 517.004 272.129 517.186 272.698 517.186C273.286 517.186 273.748 517.009 274.084 516.654C274.43 516.299 274.602 515.786 274.602 515.114V514.582C274.602 513.919 274.43 513.411 274.084 513.056C273.739 512.692 273.277 512.51 272.698 512.51Z" fill="#838F9F"/>
<path d="M304.589 508.478H307.739C308.962 508.478 309.839 508.711 310.371 509.178C310.903 509.635 311.169 510.275 311.169 511.096C311.169 511.544 311.067 511.95 310.861 512.314C310.656 512.669 310.339 512.958 309.909 513.182C310.441 513.397 310.829 513.705 311.071 514.106C311.323 514.507 311.449 514.979 311.449 515.52C311.449 516.407 311.183 517.088 310.651 517.564C310.119 518.04 309.242 518.278 308.019 518.278H304.589V508.478ZM305.905 513.826V517.074H308.019C308.775 517.074 309.307 516.939 309.615 516.668C309.923 516.397 310.077 515.991 310.077 515.45C310.077 514.909 309.923 514.503 309.615 514.232C309.307 513.961 308.775 513.826 308.019 513.826H305.905ZM305.905 509.682V512.65H307.739C308.495 512.65 309.027 512.524 309.335 512.272C309.643 512.011 309.797 511.642 309.797 511.166C309.797 510.69 309.643 510.326 309.335 510.074C309.027 509.813 308.495 509.682 307.739 509.682H305.905ZM315.931 518.39C314.96 518.39 314.19 518.101 313.621 517.522C313.061 516.943 312.781 516.117 312.781 515.044V514.512C312.781 513.98 312.856 513.509 313.005 513.098C313.154 512.687 313.364 512.337 313.635 512.048C313.906 511.759 314.237 511.539 314.629 511.39C315.021 511.241 315.455 511.166 315.931 511.166C316.342 511.166 316.706 511.222 317.023 511.334C317.35 511.446 317.63 511.6 317.863 511.796C318.106 511.983 318.302 512.207 318.451 512.468C318.61 512.729 318.726 513.009 318.801 513.308H317.457C317.354 513.065 317.177 512.851 316.925 512.664C316.682 512.468 316.328 512.37 315.861 512.37C315.329 512.37 314.9 512.547 314.573 512.902C314.256 513.257 314.097 513.793 314.097 514.512V515.044C314.097 515.753 314.26 516.29 314.587 516.654C314.914 517.009 315.338 517.186 315.861 517.186C316.337 517.186 316.696 517.088 316.939 516.892C317.182 516.696 317.354 516.435 317.457 516.108H318.801C318.661 516.78 318.353 517.331 317.877 517.76C317.401 518.18 316.752 518.39 315.931 518.39Z" fill="#838F9F"/>
<line x1="25.5476" y1="487.778" x2="339.391" y2="487.778" stroke="#E5E5E5"/>
<circle cx="52.0447" cy="544.196" r="5.98926" fill="#B0D5FB"/>
<circle cx="95.5476" cy="544.196" r="5.98926" fill="#B0D5FB"/>
<circle cx="182.553" cy="544.196" r="5.98926" fill="#B0D5FB"/>
<circle cx="226.056" cy="544.196" r="5.98926" fill="#B0D5FB"/>
<circle cx="269.559" cy="544.196" r="5.98926" fill="#B0D5FB"/>
<circle cx="313.062" cy="544.196" r="5.98926" fill="#B0D5FB"/>
<circle cx="52.0447" cy="586.575" r="5.98926" fill="#B0D5FB"/>
<circle cx="95.5476" cy="586.575" r="5.98926" fill="#B0D5FB"/>
<circle cx="139.051" cy="586.575" r="5.98926" fill="#B0D5FB"/>
<circle cx="182.553" cy="587.278" r="10.7751" fill="#3590F9"/>
<circle cx="226.056" cy="586.575" r="5.98926" fill="#B0D5FB"/>
<circle cx="269.559" cy="586.575" r="5.98926" fill="#B0D5FB"/>
<circle cx="313.062" cy="586.575" r="5.98926" fill="#B0D5FB"/>
<circle cx="52.0447" cy="628.955" r="5.98926" fill="#B0D5FB"/>
<circle cx="95.5476" cy="628.955" r="5.98926" fill="#B0D5FB"/>
<circle cx="139.051" cy="628.955" r="5.98926" fill="#B0D5FB"/>
<circle cx="182.553" cy="628.955" r="5.98926" fill="#B0D5FB"/>
<circle cx="226.056" cy="628.955" r="5.98926" fill="#B0D5FB"/>
<circle cx="269.559" cy="628.955" r="5.98926" fill="#B0D5FB"/>
<circle cx="313.062" cy="628.955" r="5.98926" fill="#B0D5FB"/>
<circle cx="52.0447" cy="671.334" r="5.98926" fill="#B0D5FB"/>
<circle cx="95.5476" cy="671.334" r="5.98926" fill="#B0D5FB"/>
<circle cx="139.051" cy="671.334" r="5.98926" fill="#B0D5FB"/>
<circle cx="182.553" cy="671.334" r="5.98926" fill="#B0D5FB"/>
<circle cx="226.056" cy="671.334" r="5.98926" fill="#B0D5FB"/>
<circle cx="269.559" cy="671.334" r="5.98926" fill="#B0D5FB"/>
<circle cx="313.062" cy="671.334" r="5.98926" fill="#B0D5FB"/>
<circle cx="52.0447" cy="713.714" r="5.98926" fill="#B0D5FB"/>
<circle cx="95.5476" cy="713.714" r="5.98926" fill="#B0D5FB"/>
<circle cx="139.051" cy="713.714" r="5.98926" fill="#EFEFEF"/>
<circle cx="182.553" cy="713.714" r="5.98926" fill="#EFEFEF"/>
<circle cx="226.056" cy="713.714" r="5.98926" fill="#EFEFEF"/>
<circle cx="269.559" cy="713.714" r="5.98926" fill="#EFEFEF"/>
<circle cx="313.062" cy="713.714" r="5.98926" fill="#EFEFEF"/>
<line x1="145.131" y1="460.191" x2="190.328" y2="460.191" stroke="#200E32" stroke-width="8" stroke-linecap="round"/>
<line x1="204.731" y1="460.191" x2="219.808" y2="460.191" stroke="#200E32" stroke-width="8" stroke-linecap="round"/>
<path fill-rule="evenodd" clip-rule="evenodd" d="M311.897 460.276L311.899 460.63C311.911 462.034 311.996 463.288 312.142 464.082C312.142 464.096 312.301 464.884 312.402 465.146C312.562 465.525 312.85 465.846 313.211 466.05C313.5 466.195 313.803 466.269 314.121 466.269C314.37 466.258 314.782 466.132 315.075 466.027L315.319 465.933C316.936 465.291 320.027 463.193 321.21 461.909L321.298 461.82L321.687 461.399C321.932 461.078 322.062 460.685 322.062 460.262C322.062 459.883 321.947 459.504 321.715 459.198C321.646 459.098 321.535 458.971 321.435 458.863L321.056 458.467C319.752 457.145 316.927 455.291 315.463 454.677C315.463 454.664 314.554 454.284 314.121 454.269H314.063C313.398 454.269 312.778 454.648 312.46 455.261C312.373 455.428 312.29 455.756 312.227 456.044L312.113 456.588C311.983 457.463 311.897 458.804 311.897 460.276ZM305.566 458.751C304.735 458.751 304.062 459.431 304.062 460.269C304.062 461.107 304.735 461.787 305.566 461.787L309.265 461.46C309.916 461.46 310.444 460.928 310.444 460.269C310.444 459.611 309.916 459.078 309.265 459.078L305.566 458.751Z" fill="#200E32"/>
<path fill-rule="evenodd" clip-rule="evenodd" d="M53.0563 460.276L53.0548 460.63C53.0426 462.034 52.958 463.288 52.812 464.082C52.812 464.096 52.6527 464.884 52.5512 465.146C52.392 465.525 52.104 465.846 51.7429 466.05C51.4538 466.195 51.1505 466.269 50.8331 466.269C50.5835 466.258 50.172 466.132 49.8783 466.027L49.6342 465.933C48.0175 465.291 44.927 463.193 43.7433 461.909L43.6561 461.82L43.2666 461.399C43.0212 461.078 42.8914 460.685 42.8914 460.262C42.8914 459.883 43.007 459.504 43.2383 459.198C43.3075 459.098 43.419 458.971 43.5183 458.863L43.8974 458.467C45.2018 457.145 48.0262 455.291 49.4902 454.677C49.4902 454.664 50.4 454.284 50.8331 454.269H50.8909C51.5553 454.269 52.176 454.648 52.4934 455.261C52.5801 455.428 52.6633 455.756 52.7266 456.044L52.8403 456.588C52.9701 457.463 53.0563 458.804 53.0563 460.276ZM59.3881 458.751C60.2183 458.751 60.8914 459.431 60.8914 460.269C60.8914 461.107 60.2183 461.787 59.3881 461.787L55.6889 461.46C55.0376 461.46 54.5096 460.928 54.5096 460.269C54.5096 459.611 55.0376 459.078 55.6889 459.078L59.3881 458.751Z" fill="#200E32"/>
<circle cx="139.051" cy="544.196" r="5.98926" fill="#868CC0"/>
<g opacity="0.5">
<path d="M1315.08 531.12C1315.04 531.083 1314.88 530.941 1314.74 530.808C1313.89 530.031 1312.49 528.005 1312.06 526.944C1311.99 526.783 1311.84 526.376 1311.83 526.159C1311.83 525.95 1311.88 525.751 1311.98 525.562C1312.12 525.325 1312.33 525.136 1312.58 525.032C1312.76 524.965 1313.28 524.861 1313.29 524.861C1313.87 524.757 1314.8 524.7 1315.83 524.7C1316.81 524.7 1317.71 524.757 1318.29 524.842C1318.3 524.852 1318.95 524.956 1319.17 525.069C1319.58 525.278 1319.83 525.685 1319.83 526.121L1319.83 526.159C1319.82 526.442 1319.57 527.039 1319.56 527.039C1319.13 528.043 1317.8 530.022 1316.92 530.818C1316.92 530.818 1316.69 531.042 1316.55 531.139C1316.34 531.291 1316.09 531.367 1315.84 531.367C1315.56 531.367 1315.29 531.282 1315.08 531.12" fill="#007AFF"/>
</g>
<defs>
<filter id="filter0_d" x="75.8621" y="97.5405" width="402" height="101.955" filterUnits="userSpaceOnUse" color-interpolation-filters="sRGB">
<feFlood flood-opacity="0" result="BackgroundImageFix"/>
<feColorMatrix in="SourceAlpha" type="matrix" values="0 0 0 0 0 0 0 0 0 0 0 0 0 0 0 0 0 0 127 0"/>
<feMorphology radius="2" operator="dilate" in="SourceAlpha" result="effect1_dropShadow"/>
<feOffset dy="4"/>
<feGaussianBlur stdDeviation="7.5"/>
<feColorMatrix type="matrix" values="0 0 0 0 0 0 0 0 0 0 0 0 0 0 0 0 0 0 0.08 0"/>
<feBlend mode="normal" in2="BackgroundImageFix" result="effect1_dropShadow"/>
<feBlend mode="normal" in="SourceGraphic" in2="effect1_dropShadow" result="shape"/>
</filter>
<filter id="filter1_d" x="75.8621" y="215.495" width="402" height="101.955" filterUnits="userSpaceOnUse" color-interpolation-filters="sRGB">
<feFlood flood-opacity="0" result="BackgroundImageFix"/>
<feColorMatrix in="SourceAlpha" type="matrix" values="0 0 0 0 0 0 0 0 0 0 0 0 0 0 0 0 0 0 127 0"/>
<feMorphology radius="2" operator="dilate" in="SourceAlpha" result="effect1_dropShadow"/>
<feOffset dy="4"/>
<feGaussianBlur stdDeviation="7.5"/>
<feColorMatrix type="matrix" values="0 0 0 0 0 0 0 0 0 0 0 0 0 0 0 0 0 0 0.08 0"/>
<feBlend mode="normal" in2="BackgroundImageFix" result="effect1_dropShadow"/>
<feBlend mode="normal" in="SourceGraphic" in2="effect1_dropShadow" result="shape"/>
</filter>
<filter id="filter2_d" x="75.8621" y="283.45" width="402" height="128.456" filterUnits="userSpaceOnUse" color-interpolation-filters="sRGB">
<feFlood flood-opacity="0" result="BackgroundImageFix"/>
<feColorMatrix in="SourceAlpha" type="matrix" values="0 0 0 0 0 0 0 0 0 0 0 0 0 0 0 0 0 0 127 0"/>
<feMorphology radius="2" operator="dilate" in="SourceAlpha" result="effect1_dropShadow"/>
<feOffset dy="4"/>
<feGaussianBlur stdDeviation="7.5"/>
<feColorMatrix type="matrix" values="0 0 0 0 0 0 0 0 0 0 0 0 0 0 0 0 0 0 0.08 0"/>
<feBlend mode="normal" in2="BackgroundImageFix" result="effect1_dropShadow"/>
<feBlend mode="normal" in="SourceGraphic" in2="effect1_dropShadow" result="shape"/>
</filter>
<filter id="filter3_d" x="475.835" y="94.4854" width="402" height="264.366" filterUnits="userSpaceOnUse" color-interpolation-filters="sRGB">
<feFlood flood-opacity="0" result="BackgroundImageFix"/>
<feColorMatrix in="SourceAlpha" type="matrix" values="0 0 0 0 0 0 0 0 0 0 0 0 0 0 0 0 0 0 127 0"/>
<feMorphology radius="2" operator="dilate" in="SourceAlpha" result="effect1_dropShadow"/>
<feOffset dy="4"/>
<feGaussianBlur stdDeviation="7.5"/>
<feColorMatrix type="matrix" values="0 0 0 0 0 0 0 0 0 0 0 0 0 0 0 0 0 0 0.08 0"/>
<feBlend mode="normal" in2="BackgroundImageFix" result="effect1_dropShadow"/>
<feBlend mode="normal" in="SourceGraphic" in2="effect1_dropShadow" result="shape"/>
</filter>
<filter id="filter4_d" x="475.835" y="324.851" width="402" height="128.456" filterUnits="userSpaceOnUse" color-interpolation-filters="sRGB">
<feFlood flood-opacity="0" result="BackgroundImageFix"/>
<feColorMatrix in="SourceAlpha" type="matrix" values="0 0 0 0 0 0 0 0 0 0 0 0 0 0 0 0 0 0 127 0"/>
<feMorphology radius="2" operator="dilate" in="SourceAlpha" result="effect1_dropShadow"/>
<feOffset dy="4"/>
<feGaussianBlur stdDeviation="7.5"/>
<feColorMatrix type="matrix" values="0 0 0 0 0 0 0 0 0 0 0 0 0 0 0 0 0 0 0.08 0"/>
<feBlend mode="normal" in2="BackgroundImageFix" result="effect1_dropShadow"/>
<feBlend mode="normal" in="SourceGraphic" in2="effect1_dropShadow" result="shape"/>
</filter>
<filter id="filter5_d" x="875.807" y="97.5405" width="402" height="101.955" filterUnits="userSpaceOnUse" color-interpolation-filters="sRGB">
<feFlood flood-opacity="0" result="BackgroundImageFix"/>
<feColorMatrix in="SourceAlpha" type="matrix" values="0 0 0 0 0 0 0 0 0 0 0 0 0 0 0 0 0 0 127 0"/>
<feMorphology radius="2" operator="dilate" in="SourceAlpha" result="effect1_dropShadow"/>
<feOffset dy="4"/>
<feGaussianBlur stdDeviation="7.5"/>
<feColorMatrix type="matrix" values="0 0 0 0 0 0 0 0 0 0 0 0 0 0 0 0 0 0 0.08 0"/>
<feBlend mode="normal" in2="BackgroundImageFix" result="effect1_dropShadow"/>
<feBlend mode="normal" in="SourceGraphic" in2="effect1_dropShadow" result="shape"/>
</filter>
<filter id="filter6_d" x="879.188" y="316.243" width="502.108" height="362.21" filterUnits="userSpaceOnUse" color-interpolation-filters="sRGB">
<feFlood flood-opacity="0" result="BackgroundImageFix"/>
<feColorMatrix in="SourceAlpha" type="matrix" values="0 0 0 0 0 0 0 0 0 0 0 0 0 0 0 0 0 0 127 0"/>
<feMorphology radius="5" operator="dilate" in="SourceAlpha" result="effect1_dropShadow"/>
<feOffset/>
<feGaussianBlur stdDeviation="10"/>
<feColorMatrix type="matrix" values="0 0 0 0 0 0 0 0 0 0 0 0 0 0 0 0 0 0 0.1 0"/>
<feBlend mode="normal" in2="BackgroundImageFix" result="effect1_dropShadow"/>
<feBlend mode="normal" in="SourceGraphic" in2="effect1_dropShadow" result="shape"/>
</filter>
<filter id="filter7_d" x="0.547607" y="408.278" width="363.843" height="358" filterUnits="userSpaceOnUse" color-interpolation-filters="sRGB">
<feFlood flood-opacity="0" result="BackgroundImageFix"/>
<feColorMatrix in="SourceAlpha" type="matrix" values="0 0 0 0 0 0 0 0 0 0 0 0 0 0 0 0 0 0 127 0"/>
<feMorphology radius="5" operator="dilate" in="SourceAlpha" result="effect1_dropShadow"/>
<feOffset/>
<feGaussianBlur stdDeviation="10"/>
<feColorMatrix type="matrix" values="0 0 0 0 0 0 0 0 0 0 0 0 0 0 0 0 0 0 0.1 0"/>
<feBlend mode="normal" in2="BackgroundImageFix" result="effect1_dropShadow"/>
<feBlend mode="normal" in="SourceGraphic" in2="effect1_dropShadow" result="shape"/>
</filter>
</defs>
</svg>
