<svg width="27" height="37" viewBox="0 0 27 37" fill="none" xmlns="http://www.w3.org/2000/svg">
<path fill-rule="evenodd" clip-rule="evenodd" d="M26.529 13.6373V9.46632C26.529 9.44032 26.5249 9.41412 26.5214 9.38779C26.52 9.22213 26.4673 9.0595 26.3539 8.93054L19.413 1.00168C19.4109 0.999645 19.4088 0.998923 19.4074 0.996756C19.3661 0.950532 19.3179 0.912057 19.2667 0.878833C19.2522 0.869066 19.2375 0.860831 19.2223 0.852293L19.2207 0.851388C19.1765 0.827357 19.1296 0.807331 19.0814 0.792821C19.0683 0.789209 19.0565 0.783891 19.0435 0.780477C18.991 0.768002 18.9366 0.760254 18.8815 0.760254H1.8231C1.04419 0.760254 0.411377 1.39379 0.411377 2.17204V13.6369V28.1655V35.3485C0.411377 36.1268 1.04419 36.7603 1.8231 36.7603H25.1172C25.8954 36.7603 26.5289 36.1268 26.5289 35.3485L26.529 13.6373ZM1.8231 2.17237H18.1756V9.39547C18.1756 9.78542 18.4919 10.1013 18.8815 10.1013H25.1173V13.6377L25.1172 28.1656L25.1173 34.9663H1.8231V28.1656V13.6377V2.17237Z" fill="#0079FB"/>
</svg>
