<svg width="33" height="37" viewBox="0 0 33 37" fill="none" xmlns="http://www.w3.org/2000/svg">
<path d="M30.4528 13.6375H29.5885V9.46594C29.5885 9.43994 29.5843 9.41374 29.5809 9.38741C29.5795 9.22176 29.5268 9.05912 29.4134 8.93023L22.4724 1.00168C22.4704 0.999645 22.4682 0.998923 22.4668 0.996757C22.4255 0.950533 22.3773 0.912057 22.3262 0.878833C22.3111 0.868722 22.2959 0.860252 22.28 0.851388C22.2359 0.827357 22.189 0.807331 22.1408 0.792821C22.1277 0.789209 22.116 0.784022 22.1029 0.780477C22.0504 0.768002 21.996 0.760254 21.941 0.760254H4.8825C4.10353 0.760254 3.47078 1.39379 3.47078 2.17205V13.6371H2.60651C1.49215 13.6371 0.588623 14.5401 0.588623 15.6548V26.1478C0.588623 27.2615 1.49215 28.1656 2.60651 28.1656H3.47078V35.3486C3.47078 36.1269 4.10353 36.7603 4.8825 36.7603H28.1767C28.955 36.7603 29.5885 36.1269 29.5885 35.3486V28.1657H30.4528C31.5668 28.1657 32.4704 27.2619 32.4704 26.1479V15.6552C32.4705 14.5402 31.5668 13.6375 30.4528 13.6375ZM4.8825 2.17205H21.235V9.3949C21.235 9.78511 21.5513 10.1008 21.9409 10.1008H28.1767V13.6374H4.8825V2.17205ZM21.8213 20.3279C21.8213 23.5371 19.8755 25.4824 17.0145 25.4824C14.1105 25.4824 12.4115 23.2899 12.4115 20.5022C12.4115 17.5688 14.2846 15.3763 17.1741 15.3763C20.1796 15.3763 21.8213 17.6267 21.8213 20.3279ZM2.75437 25.2793V15.6672C3.56749 15.5362 4.62729 15.4635 5.74592 15.4635C7.60438 15.4635 8.80935 15.7977 9.75326 16.5089C10.7697 17.2642 11.4089 18.4695 11.4089 20.1972C11.4089 22.0704 10.7266 23.3626 9.78294 24.1612C8.75184 25.0181 7.18345 25.4243 5.26654 25.4243C4.11876 25.4244 3.30597 25.3518 2.75437 25.2793ZM28.1767 34.9659H4.8825V28.1657H28.1767V34.9659ZM28.2835 23.6388C28.9515 23.6388 29.6922 23.4929 30.1275 23.3193L30.4619 25.0471C30.0551 25.2511 29.1404 25.4679 27.9499 25.4679C24.5666 25.4679 22.824 23.3627 22.824 20.5746C22.824 17.2357 25.2052 15.3763 28.167 15.3763C29.314 15.3763 30.1861 15.6086 30.5784 15.8122L30.1279 17.5688C29.678 17.3802 29.0536 17.2057 28.2691 17.2057C26.5122 17.2057 25.1471 18.2658 25.1471 20.4437C25.1467 22.4041 26.3086 23.6388 28.2835 23.6388Z" fill="#0079FB"/>
<path d="M9.05619 20.27C9.0707 18.2367 7.87978 17.1624 5.97811 17.1624C5.48436 17.1624 5.1642 17.2058 4.97583 17.2496V23.6534C5.16414 23.6971 5.46958 23.6971 5.74561 23.6971C7.74926 23.7113 9.05619 22.6076 9.05619 20.27Z" fill="#0079FB"/>
<path d="M14.7493 20.4582C14.7493 22.3756 15.6497 23.7257 17.1307 23.7257C18.6265 23.7257 19.483 22.3022 19.483 20.4004C19.483 18.6428 18.641 17.1333 17.1161 17.1333C15.6212 17.1337 14.7493 18.5567 14.7493 20.4582Z" fill="#0079FB"/>
</svg>
