<svg width="33" height="37" viewBox="0 0 33 37" fill="none" xmlns="http://www.w3.org/2000/svg">
<path d="M30.3934 13.6373H29.529V9.46632C29.529 9.44011 29.5248 9.41409 29.5214 9.38756C29.52 9.22194 29.4673 9.05926 29.3539 8.93056L22.413 1.0015C22.4109 0.999469 22.4088 0.99875 22.4074 0.996724C22.366 0.950515 22.3178 0.911888 22.2668 0.878816C22.2517 0.868489 22.2365 0.860058 22.2207 0.851234C22.1765 0.827313 22.1296 0.807117 22.0814 0.792672C22.0683 0.789208 22.0566 0.783849 22.0435 0.780254C21.9911 0.768032 21.9366 0.760254 21.8815 0.760254H4.82314C4.04419 0.760254 3.41138 1.39378 3.41138 2.17208V13.637H2.54713C1.43282 13.637 0.529297 14.5401 0.529297 15.6546V26.1475C0.529297 27.2615 1.43282 28.1656 2.54713 28.1656H3.41145V35.3484C3.41145 36.1267 4.04425 36.7603 4.82321 36.7603H28.1173C28.8955 36.7603 29.529 36.1267 29.529 35.3484V28.1656H30.3935C31.5075 28.1656 32.4112 27.2618 32.4112 26.1479V15.655C32.4111 14.5405 31.5074 13.6373 30.3934 13.6373ZM28.1173 34.9663H4.82314V28.1656H28.1172V34.9663H28.1173ZM11.1394 24.4859C11.6869 24.4859 12.1251 24.4239 12.3127 24.3301V22.1249H10.686V20.2634H14.6117V25.8156C13.8769 26.0658 12.4838 26.4099 11.0925 26.4099C9.16862 26.4099 7.77666 25.9252 6.80673 24.9867C5.83686 24.0799 5.30536 22.7033 5.32118 21.1554C5.33634 17.652 7.8864 15.6502 11.3427 15.6502C12.703 15.6502 13.7504 15.916 14.2669 16.1662L13.7665 18.0738C13.1879 17.8236 12.4682 17.6207 11.3103 17.6207C9.32502 17.6207 7.82281 18.7469 7.82281 21.0297C7.8232 23.2037 9.18463 24.4859 11.1394 24.4859ZM16.4738 26.3002V15.7599H18.8663V26.3002H16.4738ZM27.1094 20.1231V22.0622H23.3243V26.3002H20.9316V15.7599H27.3758V17.7141H23.3243V20.123H27.1094V20.1231ZM28.1173 13.6373H4.82314V2.17234H21.1756V9.39521C21.1756 9.7852 21.492 10.1011 21.8815 10.1011H28.1172V13.6373H28.1173Z" fill="#0079FB"/>
</svg>
