<svg width="33" height="37" viewBox="0 0 33 37" fill="none" xmlns="http://www.w3.org/2000/svg">
<path d="M14.9819 17.1353C14.4977 17.1353 14.169 17.1823 13.9968 17.2295V20.3415C14.2006 20.3884 14.4507 20.4043 14.7944 20.4043C16.0616 20.4043 16.8438 19.7625 16.8438 18.684C16.8438 17.7141 16.1708 17.1353 14.9819 17.1353Z" fill="#0079FB"/>
<path d="M30.3934 13.6373H29.529V9.46632C29.529 9.4403 29.5248 9.41409 29.5214 9.38775C29.52 9.22213 29.4673 9.05945 29.3539 8.93056L22.413 1.00169C22.4109 0.999665 22.4088 0.998946 22.4074 0.996724C22.366 0.950515 22.3178 0.912084 22.2668 0.878816C22.2517 0.868685 22.2365 0.860188 22.2207 0.85143C22.1765 0.827313 22.1296 0.807313 22.0814 0.792868C22.0683 0.789208 22.0566 0.783849 22.0435 0.78045C21.9911 0.768032 21.9366 0.760254 21.8815 0.760254H4.82314C4.04419 0.760254 3.41138 1.39378 3.41138 2.17208V13.637H2.54713C1.43282 13.637 0.529297 14.5401 0.529297 15.6548V26.1479C0.529297 27.2618 1.43282 28.1656 2.54713 28.1656H3.41145V35.3484C3.41145 36.1267 4.04425 36.7603 4.82321 36.7603H28.1173C28.8955 36.7603 29.529 36.1267 29.529 35.3484V28.1656H30.3935C31.5075 28.1656 32.4112 27.2618 32.4112 26.1479V15.6551C32.4111 14.5405 31.5074 13.6373 30.3934 13.6373ZM4.82314 2.17234H21.1756V9.3954C21.1756 9.7854 21.492 10.1013 21.8815 10.1013H28.1172V13.6377H4.82314V2.17234ZM19.2048 18.6211C19.2048 19.6532 18.8608 20.529 18.2356 21.1239C17.4218 21.8901 16.2176 22.2337 14.8106 22.2337C14.4977 22.2337 14.2157 22.2186 13.9968 22.1872V25.9562H11.6353V15.5564C12.3708 15.4306 13.4028 15.3372 14.8573 15.3372C16.3273 15.3372 17.3752 15.6184 18.0798 16.1817C18.7516 16.7132 19.2048 17.5892 19.2048 18.6211ZM4.15863 25.878L4.42504 23.9544C4.75366 24.064 5.17536 24.1426 5.64451 24.1426C6.64614 24.1426 7.27117 23.6883 7.27117 22.0464V15.4151H9.64816V22.0774C9.64816 25.0805 8.20895 26.1279 5.89471 26.1279C5.34778 26.1282 4.62811 26.0352 4.15863 25.878ZM28.1173 34.9663H4.82314V28.1656H28.1172V34.9663H28.1173ZM29.5282 25.4716C28.7935 25.7218 27.4016 26.0658 26.0085 26.0658C24.0859 26.0658 22.6934 25.5809 21.7243 24.6428C20.7543 23.7359 20.2219 22.3596 20.2381 20.8111C20.2532 17.3077 22.8024 15.3058 26.2594 15.3058C27.6201 15.3058 28.6686 15.5713 29.1843 15.8218L28.6838 17.7297C28.1048 17.4794 27.3851 17.2761 26.2277 17.2761C24.2417 17.2761 22.7411 18.4025 22.7411 20.6859C22.7411 22.8598 24.1011 24.1422 26.0564 24.1422C26.6037 24.1422 27.0418 24.0795 27.2293 23.9854V21.7803H25.6024V19.9194H29.5282V25.4716H29.5282Z" fill="#0079FB"/>
</svg>
