<svg width="33" height="37" viewBox="0 0 33 37" fill="none" xmlns="http://www.w3.org/2000/svg">
<path d="M9.02381 19.2062C9.02381 18.2368 8.35067 17.6582 7.16277 17.6582C6.67819 17.6582 6.34989 17.7049 6.17773 17.7518V20.8647C6.38126 20.9109 6.63146 20.9267 6.9746 20.9267C8.24198 20.9267 9.02381 20.2856 9.02381 19.2062Z" fill="#0079FB"/>
<path d="M16.3763 17.6895C15.8439 17.6895 15.5007 17.7363 15.2966 17.7832V24.6801C15.5003 24.7278 15.8288 24.7278 16.126 24.7278C18.284 24.7429 19.6916 23.5548 19.6916 21.0367C19.7075 18.8463 18.4247 17.6895 16.3763 17.6895Z" fill="#0079FB"/>
<path d="M30.4647 13.6373H29.6002V9.46632C29.6002 9.4403 29.5961 9.41409 29.5927 9.38775C29.5913 9.22213 29.5386 9.05945 29.4252 8.93056L22.4843 1.00169C22.4822 0.999665 22.4801 0.998946 22.4787 0.996724C22.4373 0.950515 22.3891 0.912084 22.3381 0.878816C22.323 0.868685 22.3078 0.860188 22.292 0.85143C22.2478 0.827313 22.2009 0.807313 22.1527 0.792868C22.1396 0.789208 22.1278 0.783849 22.1148 0.78045C22.0624 0.768032 22.0079 0.760254 21.9528 0.760254H4.89443C4.11548 0.760254 3.48267 1.39378 3.48267 2.17208V13.637H2.61842C1.50411 13.637 0.600586 14.5401 0.600586 15.6548V26.1479C0.600586 27.2618 1.50411 28.1656 2.61842 28.1656H3.48274V35.3484C3.48274 36.1267 4.11554 36.7603 4.8945 36.7603H28.1886C28.9668 36.7603 29.6003 36.1267 29.6003 35.3484V28.1656H30.4648C31.5787 28.1656 32.4825 27.2618 32.4825 26.1479V15.6551C32.4824 14.5405 31.5787 13.6373 30.4647 13.6373ZM4.89443 2.17234H21.2469V9.3954C21.2469 9.7854 21.5633 10.1013 21.9528 10.1013H28.1885V13.6377H4.89443V2.17234ZM22.225 20.9578C22.225 22.9758 21.4902 24.3673 20.4721 25.2279C19.3629 26.1506 17.6734 26.5883 15.6096 26.5883C14.3743 26.5883 13.4987 26.5101 12.9037 26.4322V16.0782C13.7794 15.9377 14.9219 15.8595 16.1262 15.8595C18.1269 15.8595 19.4254 16.2195 20.4424 16.9854C21.5367 17.7988 22.225 19.0966 22.225 20.9578ZM3.816 26.4791V16.0782C4.55071 15.9538 5.58345 15.8595 7.03795 15.8595C8.50795 15.8595 9.55605 16.1411 10.2596 16.7045C10.9323 17.2359 11.3847 18.1119 11.3847 19.1442C11.3847 20.1768 11.0416 21.0526 10.4155 21.6465C9.60233 22.413 8.39821 22.7573 6.99024 22.7573C6.67796 22.7573 6.39547 22.7415 6.1775 22.7101V26.4794H3.816V26.4791ZM28.1886 34.9663H4.89443V28.1656H28.1885V34.9663H28.1886ZM30.2341 17.8927H26.1825V20.3013H29.9677V22.2407H26.1825V26.4792H23.7909V15.9377H30.2341V17.8927Z" fill="#0079FB"/>
</svg>
