<svg width="33" height="37" viewBox="0 0 33 37" fill="none" xmlns="http://www.w3.org/2000/svg">
<path d="M7.7074 18.8457C7.7074 17.9308 7.0727 17.3848 5.95009 17.3848C5.49323 17.3848 5.18369 17.4289 5.02173 17.4733V20.4097C5.21336 20.4539 5.44911 20.4683 5.77467 20.4683C6.96897 20.4691 7.7074 19.8635 7.7074 18.8457Z" fill="#0079FB"/>
<path d="M30.0394 13.6373H29.175V9.46632C29.175 9.4403 29.1708 9.41409 29.1674 9.38775C29.166 9.22213 29.1133 9.05945 28.9999 8.93056L22.059 1.00169C22.0569 0.999665 22.0548 0.998946 22.0534 0.996724C22.012 0.950515 21.9638 0.912084 21.9128 0.878816C21.8977 0.868685 21.8825 0.860188 21.8667 0.85143C21.8225 0.827313 21.7756 0.807313 21.7274 0.792868C21.7143 0.789208 21.7026 0.783849 21.6895 0.78045C21.6371 0.768032 21.5826 0.760254 21.5275 0.760254H4.46914C3.69019 0.760254 3.05738 1.39378 3.05738 2.17208V13.637H2.19313C1.07882 13.637 0.175293 14.5401 0.175293 15.6548V26.1479C0.175293 27.2618 1.07882 28.1656 2.19313 28.1656H3.05744V35.3484C3.05744 36.1267 3.69025 36.7603 4.4692 36.7603H27.7633C28.5415 36.7603 29.175 36.1267 29.175 35.3484V28.1656H30.0395C31.1534 28.1656 32.0572 27.2618 32.0572 26.1479V15.6551C32.0571 14.5405 31.1534 13.6373 30.0394 13.6373ZM4.46914 2.17234H20.8216V9.3954C20.8216 9.7854 21.138 10.1013 21.5275 10.1013H27.7632V13.6377H4.46914V2.17234ZM13.4328 22.7118V25.7073H11.3674V15.7618H13.9938L16.0598 19.4062C16.6497 20.4539 17.2405 21.6926 17.6824 22.8149H17.7265C17.579 21.501 17.5348 20.1585 17.5348 18.6685V15.7618H19.6011V25.7073H17.2405L15.1153 21.8705C14.5238 20.8083 13.8753 19.5247 13.3873 18.359L13.3438 18.3735C13.4041 19.687 13.4328 21.0888 13.4328 22.7118ZM2.79306 25.7073V15.8949C3.48672 15.777 4.46077 15.6884 5.83266 15.6884C7.21926 15.6884 8.20867 15.9538 8.87246 16.4853C9.50631 16.9868 9.93488 17.8129 9.93488 18.7871C9.93488 19.7608 9.61076 20.5877 9.01991 21.1481C8.25272 21.8712 7.11645 22.1959 5.78848 22.1959C5.49293 22.1959 5.22685 22.1808 5.02142 22.1518V25.708H2.79306V25.7073ZM27.7633 34.9663H4.46914V28.1656H27.7632V34.9663H27.7633ZM29.8581 25.2496C29.1646 25.4854 27.8507 25.8107 26.5375 25.8107C24.7232 25.8107 23.4086 25.353 22.4946 24.4679C21.5799 23.6117 21.0773 22.313 21.0925 20.8524C21.107 17.5472 23.5127 15.6587 26.7733 15.6587C28.0572 15.6587 29.0467 15.909 29.5327 16.1454L29.0612 17.9456C28.5142 17.7092 27.8356 17.5175 26.7437 17.5175C24.8708 17.5175 23.4535 18.58 23.4535 20.7345C23.4535 22.7856 24.7377 23.9954 26.5823 23.9954C27.0984 23.9954 27.5116 23.9365 27.6891 23.8479V21.7671H26.1537V20.011H29.8582V25.2496H29.8581Z" fill="#0079FB"/>
</svg>
