<svg width="33" height="37" viewBox="0 0 33 37" fill="none" xmlns="http://www.w3.org/2000/svg">
<path d="M13.0844 17.9851C12.723 17.9851 12.4784 18.0204 12.3506 18.0548V20.372C12.5024 20.4075 12.6884 20.4189 12.9445 20.4189C13.8883 20.4189 14.4702 19.9412 14.4702 19.1374C14.4702 18.4162 13.9688 17.9851 13.0844 17.9851Z" fill="#0079FB"/>
<path d="M30.3933 13.6369H29.5288V9.46592C29.5288 9.43972 29.5247 9.41372 29.5212 9.38713C29.5199 9.22154 29.4671 9.05884 29.3537 8.93015L22.4129 1.00168C22.4107 0.999448 22.4087 0.998791 22.4073 0.996756C22.3659 0.950532 22.3177 0.911925 22.2666 0.878833C22.2515 0.868525 22.2363 0.860055 22.2205 0.851322C22.1764 0.827357 22.1294 0.8072 22.0812 0.792689C22.0681 0.789275 22.0563 0.783891 22.0433 0.780345C21.9909 0.768002 21.9364 0.760254 21.8814 0.760254H4.82293C4.04402 0.760254 3.4112 1.39379 3.4112 2.17204V13.6369H2.54687C1.43258 13.6369 0.529053 14.5401 0.529053 15.6546V26.1475C0.529053 27.2614 1.43258 28.1655 2.54687 28.1655H3.4112V35.3485C3.4112 36.1268 4.04402 36.7603 4.82293 36.7603H28.117C28.8953 36.7603 29.5287 36.1268 29.5287 35.3485V28.1656H30.3932C31.5072 28.1656 32.4108 27.2619 32.4108 26.1479V15.6552C32.4109 14.5401 31.5072 13.6369 30.3933 13.6369ZM4.82293 2.17204H21.1755V9.39488C21.1755 9.78489 21.4917 10.1008 21.8814 10.1008H28.1171V13.6372H4.82293V2.17204ZM16.765 18.1955V16.7043H22.7966V18.1955H20.6542V24.5527H18.873V18.1955H16.765ZM16.2275 19.0918C16.2275 19.8597 15.9721 20.5115 15.5061 20.9541C14.9002 21.5248 14.0034 21.7816 12.9561 21.7816C12.7226 21.7816 12.5129 21.7699 12.3502 21.7462V24.5524H10.5919V16.8091C11.1392 16.7161 11.908 16.6458 12.9908 16.6458C14.086 16.6458 14.8657 16.8555 15.3902 17.2744C15.8909 17.6707 16.2275 18.3229 16.2275 19.0918ZM3.82629 24.5524V16.8091C4.37362 16.7161 5.1417 16.6458 6.22454 16.6458C7.3194 16.6458 8.09903 16.8555 8.62344 17.2744C9.12422 17.6708 9.46164 18.3229 9.46164 19.0911C9.46164 19.8591 9.20537 20.5111 8.73953 20.9537C8.13356 21.5244 7.23752 21.7809 6.18922 21.7809C5.95705 21.7809 5.74628 21.7692 5.58325 21.7458V24.552H3.82629V24.5524ZM28.1171 34.9659H4.82293V28.1656H28.117V34.9659H28.1171ZM28.0847 24.5524L27.374 23.1317C27.0835 22.5844 26.8963 22.177 26.675 21.7231H26.6523C26.4896 22.177 26.291 22.5844 26.047 23.1317L25.3945 24.5524H23.3688L25.6389 20.5809L23.4505 16.7043H25.4878L26.1744 18.1369C26.4079 18.6141 26.5825 18.9985 26.7686 19.441H26.792C26.9782 18.9398 27.1298 18.5905 27.3277 18.1369L27.9915 16.7043H30.0182L27.8053 20.5353L30.134 24.5524H28.0847Z" fill="#0079FB"/>
<path d="M7.70337 19.1374C7.70337 18.4159 7.20253 17.9849 6.31738 17.9849C5.95711 17.9849 5.71129 18.0202 5.58325 18.0545V20.3721C5.73525 20.4072 5.92107 20.419 6.17766 20.419C7.12137 20.419 7.70337 19.9416 7.70337 19.1374Z" fill="#0079FB"/>
</svg>
