<svg width="33" height="37" viewBox="0 0 33 37" fill="none" xmlns="http://www.w3.org/2000/svg">
<path d="M30.3934 13.6373H29.529V9.46632C29.529 9.4403 29.5248 9.41409 29.5214 9.38775C29.52 9.22213 29.4673 9.05945 29.3539 8.93056L22.413 1.00169C22.4109 0.999665 22.4088 0.998946 22.4074 0.996724C22.366 0.950515 22.3178 0.912084 22.2668 0.878816C22.2517 0.868685 22.2365 0.860188 22.2207 0.85143C22.1765 0.827313 22.1296 0.807313 22.0814 0.792868C22.0683 0.789208 22.0566 0.783849 22.0435 0.78045C21.9911 0.768032 21.9366 0.760254 21.8815 0.760254H4.82314C4.04419 0.760254 3.41138 1.39378 3.41138 2.17208V13.637H2.54713C1.43282 13.637 0.529297 14.5401 0.529297 15.6548V26.1479C0.529297 27.2618 1.43282 28.1656 2.54713 28.1656H3.41145V35.3484C3.41145 36.1267 4.04425 36.7603 4.82321 36.7603H28.1173C28.8955 36.7603 29.529 36.1267 29.529 35.3484V28.1656H30.3935C31.5075 28.1656 32.4112 27.2618 32.4112 26.1479V15.6551C32.4111 14.5405 31.5074 13.6373 30.3934 13.6373ZM4.82314 2.17234H21.1756V9.3954C21.1756 9.7854 21.492 10.1013 21.8815 10.1013H28.1172V13.6377H4.82314V2.17234ZM20.6186 15.51L17.0679 26.0517H14.2842L10.9057 15.51H13.518L14.8001 19.9673C15.1601 21.2185 15.4884 22.4226 15.7387 23.7365H15.7855C16.051 22.4696 16.3796 21.2185 16.7393 20.0141L18.0847 15.5097H20.6187V15.51H20.6186ZM2.94458 25.5667L3.42922 23.596C4.07046 23.9241 5.05589 24.2529 6.07229 24.2529C7.16712 24.2529 7.74594 23.7996 7.74594 23.1114C7.74594 22.4544 7.24516 22.079 5.97798 21.6255C4.22635 21.0158 3.08498 20.0459 3.08498 18.5137C3.08498 16.7147 4.58634 15.3386 7.07281 15.3386C8.26156 15.3386 9.13758 15.5885 9.76293 15.87L9.23182 17.794C8.80927 17.5904 8.05895 17.2936 7.02627 17.2936C5.99418 17.2936 5.49334 17.763 5.49334 18.31C5.49334 18.983 6.08739 19.2801 7.44869 19.7957C9.30934 20.4843 10.1853 21.4535 10.1853 22.9391C10.1853 24.7065 8.82509 26.2079 5.93111 26.2079C4.72713 26.2079 3.53805 25.8956 2.94458 25.5667ZM28.1173 34.9663H4.82314V28.1656H28.1172V34.9663H28.1173ZM30.4251 25.5667C29.6903 25.8166 28.2985 26.1617 26.9067 26.1617C24.9828 26.1617 23.5911 25.6764 22.6211 24.7382C21.6513 23.8314 21.1198 22.4545 21.135 20.9066C21.1515 17.403 23.7007 15.401 27.157 15.401C28.5171 15.401 29.5656 15.6672 30.0812 15.9171L29.5807 17.8257C29.0017 17.5755 28.2834 17.3715 27.1254 17.3715C25.1387 17.3715 23.638 18.4978 23.638 20.7815C23.638 22.9556 24.9981 24.2378 26.9537 24.2378C27.5011 24.2378 27.9388 24.175 28.1262 24.0813V21.8757H26.5004V20.0149H30.4252V25.5667H30.4251Z" fill="#0079FB"/>
</svg>
