<svg width="32" height="37" viewBox="0 0 32 37" fill="none" xmlns="http://www.w3.org/2000/svg">
<path d="M29.9676 13.6375H29.1032V9.46592C29.1032 9.43992 29.0991 9.41372 29.0956 9.38739C29.0942 9.22174 29.0415 9.0591 28.9281 8.93021L21.9872 1.00168C21.9851 0.999645 21.983 0.998923 21.9817 0.996756C21.9403 0.950532 21.8921 0.912057 21.8409 0.878833C21.8259 0.868722 21.8107 0.860252 21.7949 0.851388C21.7507 0.827357 21.7038 0.807331 21.6556 0.792821C21.6425 0.789209 21.6307 0.784022 21.6177 0.780477C21.5652 0.768002 21.5108 0.760254 21.4557 0.760254H4.39732C3.61841 0.760254 2.9856 1.39379 2.9856 2.17204V13.6371H2.12114C1.00704 13.6371 0.103516 14.5401 0.103516 15.6548V26.1478C0.103516 27.2614 1.00704 28.1655 2.12114 28.1655H2.9856V35.3485C2.9856 36.1268 3.61841 36.7603 4.39732 36.7603H27.6914C28.4696 36.7603 29.1031 36.1268 29.1031 35.3485V28.1656H29.9676C31.0815 28.1656 31.9852 27.2619 31.9852 26.1479V15.6552C31.9853 14.5401 31.0816 13.6375 29.9676 13.6375ZM4.39732 2.17204H20.7498V9.39488C20.7498 9.78509 21.0661 10.1008 21.4557 10.1008H27.6914V13.6374H4.39732V2.17204ZM11.3609 15.5362H14.0975L15.0209 17.46C15.3331 18.1005 15.5682 18.617 15.8184 19.2115H15.8499C16.0993 18.539 16.303 18.0696 16.5689 17.46L17.461 15.5362H20.1825L17.2107 20.6814L20.3385 26.0775H17.5857L16.632 24.1695C16.2409 23.4343 15.9904 22.8873 15.6931 22.2769H15.6618C15.4429 22.8873 15.1771 23.4343 14.8488 24.1695L13.9732 26.0775H11.2513L14.3015 20.7445L11.3609 15.5362ZM2.38311 17.5381V15.5363H10.4842V17.5381H7.60651V26.0769H5.21431V17.5381H2.38311ZM27.6914 34.9659H4.39732V28.1656H27.6914V34.9659H27.6914ZM29.0197 17.5381H26.1418V26.0769H23.7491V17.5381H20.918V15.5363H29.0198V17.5381H29.0197Z" fill="#0079FB"/>
</svg>
