<svg width="33" height="37" viewBox="0 0 33 37" fill="none" xmlns="http://www.w3.org/2000/svg">
<path d="M30.4534 13.6373H29.5889V9.46632C29.5889 9.4403 29.5848 9.41409 29.5817 9.38756C29.5803 9.22213 29.5272 9.05939 29.4138 8.93056L22.4725 1.00169C22.4704 0.999665 22.4684 0.998946 22.467 0.996724C22.4256 0.950515 22.3774 0.912084 22.3264 0.878816C22.3113 0.868685 22.2961 0.860188 22.2802 0.851234C22.2361 0.827313 22.1892 0.807117 22.141 0.792672C22.1279 0.789208 22.1161 0.783849 22.1031 0.780385C22.0506 0.768032 21.9962 0.760254 21.941 0.760254H4.88271C4.10376 0.760254 3.47095 1.39378 3.47095 2.17208V13.637H2.6067C1.49239 13.637 0.588867 14.5401 0.588867 15.6548V26.1479C0.588867 27.2615 1.49239 28.1656 2.6067 28.1656H3.47102V35.3484C3.47102 36.1267 4.10383 36.7603 4.88278 36.7603H28.1768C28.9551 36.7603 29.5886 36.1267 29.5886 35.3484V28.1656H30.453C31.567 28.1656 32.4707 27.2618 32.4707 26.1479V15.6551C32.4707 14.5401 31.5676 13.6373 30.4534 13.6373ZM4.88271 2.17208H21.2352V9.39494C21.2352 9.78494 21.5516 10.1008 21.941 10.1008H28.1768V13.6373H4.88271V2.17208ZM20.7233 23.9199V25.9673H13.9879V15.1853H16.4362V23.9199H20.7233ZM3.38272 25.9669L6.50232 20.5122L3.49455 15.1853H6.29408L7.2378 17.1526C7.558 17.8081 7.79806 18.3366 8.05414 18.9443H8.08571C8.34231 18.2562 8.54983 17.7762 8.82159 17.1526L9.73361 15.1853H12.5171L9.47734 20.4484L12.6774 25.9672H9.86165L8.8859 24.0157C8.48623 23.2636 8.22996 22.7039 7.92617 22.0801H7.89414C7.66989 22.7043 7.39852 23.2643 7.06264 24.0157L6.1665 25.9672H3.38272V25.9669ZM28.1768 34.9663H4.88271V28.1656H28.1768V34.9663H28.1768ZM24.8018 26.1279C23.5706 26.1279 22.3544 25.8073 21.747 25.4716L22.2423 23.456C22.8985 23.7917 23.9064 24.1281 24.9466 24.1281C26.0668 24.1281 26.6582 23.6641 26.6582 22.9603C26.6582 22.2883 26.1464 21.9043 24.8504 21.4403C23.0589 20.8162 21.8908 19.8245 21.8908 18.2562C21.8908 16.4163 23.4266 15.0089 25.971 15.0089C27.1863 15.0089 28.0825 15.2655 28.7222 15.5528L28.1783 17.5207C27.7464 17.3124 26.9782 17.0087 25.9228 17.0087C24.8671 17.0087 24.3553 17.4883 24.3553 18.0487C24.3553 18.7366 24.9625 19.0409 26.3547 19.5688C28.2583 20.2727 29.1544 21.264 29.1544 22.7839C29.1536 24.592 27.7622 26.1279 24.8018 26.1279Z" fill="#0079FB"/>
</svg>
