<svg width="33" height="37" viewBox="0 0 33 37" fill="none" xmlns="http://www.w3.org/2000/svg">
<path d="M30.3933 13.6373H29.5288V9.46632C29.5288 9.44032 29.5247 9.41412 29.5212 9.38779C29.5199 9.22213 29.4671 9.0595 29.3537 8.93054L22.4129 1.00168C22.4107 0.999645 22.4087 0.998923 22.4073 0.996756C22.3659 0.950532 22.3177 0.912057 22.2666 0.878833C22.2515 0.868722 22.2363 0.860252 22.2205 0.851388C22.1764 0.827357 22.1294 0.807331 22.0812 0.792821C22.0681 0.789209 22.0563 0.783891 22.0433 0.780477C21.9909 0.768002 21.9364 0.760254 21.8814 0.760254H4.82293C4.04402 0.760254 3.4112 1.39379 3.4112 2.17204V13.6369H2.54687C1.43258 13.6369 0.529053 14.5401 0.529053 15.6548V26.1478C0.529053 27.2619 1.43258 28.1655 2.54687 28.1655H3.4112V35.3485C3.4112 36.1268 4.04402 36.7603 4.82293 36.7603H28.117C28.8953 36.7603 29.5287 36.1268 29.5287 35.3485V28.1656H30.3932C31.5072 28.1656 32.4108 27.2619 32.4108 26.1479V15.6552C32.4109 14.5405 31.5072 13.6373 30.3933 13.6373ZM4.82293 2.17237H21.1755V9.39547C21.1755 9.78542 21.4917 10.1013 21.8814 10.1013H28.1171V13.6377H4.82293V2.17237ZM19.6981 15.444V25.9852H17.3051V15.444H19.6981ZM8.07644 17.4145V15.444H15.724V16.8207L10.8134 23.9524V24.0143H15.8025V25.9852H7.60737V24.7024L12.628 17.4774V17.4145H8.07644ZM28.1171 34.9663H4.82293V28.1656H28.117V34.9663H28.1171ZM28.3628 21.1529C27.5497 21.9192 26.3455 22.2627 24.9378 22.2627C24.6242 22.2627 24.3435 22.2476 24.1244 22.2162V25.9851H21.763V15.5848C22.4979 15.4591 23.5298 15.3657 24.9843 15.3657C26.455 15.3657 27.5023 15.647 28.2066 16.2102C28.8787 16.7418 29.3323 17.6178 29.3323 18.6501C29.3326 19.6823 28.9884 20.558 28.3628 21.1529Z" fill="#0079FB"/>
<path d="M25.1101 17.1643C24.6241 17.1643 24.2956 17.2114 24.1243 17.2586V20.3706C24.3269 20.4175 24.5778 20.4334 24.9222 20.4334C26.1884 20.4334 26.9709 19.7916 26.9709 18.7131C26.971 17.7432 26.2984 17.1643 25.1101 17.1643Z" fill="#0079FB"/>
</svg>
