<svg width="1708" height="739" viewBox="0 0 1708 739" fill="none" xmlns="http://www.w3.org/2000/svg">
<path d="M1362.4 391.051H1281.56V598.755H1362.4V391.051Z" fill="#F0F0F0"/>
<path d="M991.815 598.568H1281.49V390.864H991.815V598.568Z" fill="#F5F5F5"/>
<path d="M1009.7 578.359H1058.01V536.01H1009.7V578.359Z" fill="white"/>
<path d="M1009.7 520.679H1058.01V478.33H1009.7V520.679Z" fill="#EBEBEB"/>
<path opacity="0.7" d="M1362.59 417.808H991.112V426.085H1362.59V417.808Z" fill="#B3B3B4"/>
<path d="M1367.01 387.009H1281.56V420.696H1367.01V387.009Z" fill="#F0F0F0"/>
<path d="M987.542 420.512L1281.64 420.512V386.825L987.542 386.825V420.512Z" fill="#F5F5F5"/>
<path d="M1331.79 323.485H1268.85V387.586H1331.79V323.485Z" fill="#F0F0F0"/>
<path d="M1049.83 387.431H1268.86V323.329H1049.83V387.431Z" fill="#F5F5F5"/>
<path opacity="0.7" d="M1331.79 333.109H1049.24V338.307H1331.79V333.109Z" fill="#B3B3B4"/>
<path d="M1335.26 320.405H1268.85V335.419H1335.26V320.405Z" fill="#F0F0F0"/>
<path d="M1046.35 335.198H1268.86V320.184H1046.35V335.198Z" fill="#F5F5F5"/>
<path d="M1405.91 598.592H1467.5V286.941H1405.91V598.592Z" fill="#B3B3B4"/>
<path d="M1419.18 598.562H1405.9V576.617H1432.84L1419.18 598.562Z" fill="#F0F0F0"/>
<path d="M1611.34 598.592H1672.93V286.941H1611.34V598.592Z" fill="#B3B3B4"/>
<path d="M1405.91 594.13H1622.83V286.907H1405.91V594.13Z" fill="#F0F0F0"/>
<path d="M1416.11 384.969H1612.63V300.656H1416.11V384.969Z" fill="#B3B3B4"/>
<path d="M1527.35 341.002C1527.35 348.125 1521.57 353.9 1514.45 353.9C1507.33 353.9 1501.55 348.125 1501.55 341.002C1501.55 333.88 1507.33 328.105 1514.45 328.105C1521.57 328.105 1527.35 333.88 1527.35 341.002Z" fill="#FAFAFA"/>
<path d="M1609.73 598.562H1622.81V576.617H1595.87L1609.73 598.562Z" fill="#F0F0F0"/>
<path d="M1612.61 398.559H1416.1V580.66H1612.61V398.559Z" fill="#B3B3B4"/>
<path d="M1585.47 438.598C1592.6 438.598 1598.37 432.824 1598.37 425.701C1598.37 418.578 1592.6 412.804 1585.47 412.804C1578.35 412.804 1572.58 418.578 1572.58 425.701C1572.58 432.824 1578.35 438.598 1585.47 438.598Z" fill="#FAFAFA"/>
<path d="M1652.05 252.328V0.157959L1018.8 0.157959V252.328L1652.05 252.328Z" fill="#B3B3B4"/>
<path d="M1649.25 252.431V0.26123L1016.01 0.26123V252.431L1649.25 252.431Z" fill="#F0F0F0"/>
<path d="M1633.01 16.2615H1031.92V236.092H1633.01V16.2615Z" fill="white"/>
<path d="M1101.98 107.89L1081 144.656H1123.15L1101.98 107.89Z" fill="#B3B3B4"/>
<path d="M1211.69 109.044H1177.23V143.501H1211.69V109.044Z" fill="#B3B3B4"/>
<path d="M1286.95 104.232L1263.66 121.172L1272.7 148.314H1301.38L1310.23 121.172L1286.95 104.232Z" fill="#B3B3B4"/>
<path d="M1391.65 105.195H1367.21L1355.08 126.369L1367.21 147.351H1391.65L1403.78 126.369L1391.65 105.195Z" fill="#B3B3B4"/>
<path d="M1471.91 103.077L1452.86 112.317L1448.05 132.914L1461.33 149.469H1482.5L1495.78 132.914L1490.97 112.317L1471.91 103.077Z" fill="#B3B3B4"/>
<path d="M1573.73 103.655H1555.06L1541.78 116.937V135.609L1555.06 148.891H1573.73L1586.82 135.609V116.937L1573.73 103.655Z" fill="#B3B3B4"/>
<path opacity="0.8" d="M1333.91 685.57C1540.03 685.57 1707.12 675.831 1707.12 663.818C1707.12 651.805 1540.03 642.066 1333.91 642.066C1127.79 642.066 960.702 651.805 960.702 663.818C960.702 675.831 1127.79 685.57 1333.91 685.57Z" fill="#F5F5F5"/>
<rect width="84.6373" height="7.38893" transform="matrix(-1 -8.74228e-08 -8.74228e-08 1 852.244 655.596)" fill="#C4C4C4"/>
<rect width="84.6373" height="7.38893" transform="matrix(-1 -8.74228e-08 -8.74228e-08 1 852.244 579.027)" fill="#C4C4C4"/>
<rect width="31.692" height="96.7281" transform="matrix(-1 -8.74228e-08 -8.74228e-08 1 852.244 574.325)" fill="#F3F3F3"/>
<rect width="77.3343" height="116.579" transform="matrix(-1 -8.74228e-08 -8.74228e-08 1 906.423 564.281)" fill="#C2C2C3"/>
<path d="M1402.72 324.665H1385.02V539L1313.74 610.281L899.326 622.571" stroke="#C2C2C3" stroke-width="5"/>
<rect x="443.176" y="603.213" width="59.0505" height="135.68" fill="#C2C2C3"/>
<rect x="502.227" y="603.213" width="29.4361" height="135.68" fill="#EFEFEF"/>
<rect x="513.17" y="618.372" width="7.5499" height="18.2743" fill="#C4C4C4"/>
<rect x="513.17" y="707.773" width="7.5499" height="18.2743" fill="#C4C4C4"/>
<path d="M446.89 668.578H133.075V554.343H-11.7109" stroke="#C2C2C3" stroke-width="5"/>
</svg>
