<svg width="188" height="50" viewBox="0 0 188 50" fill="none" xmlns="http://www.w3.org/2000/svg">
<path d="M67.8443 30.7102H70.9043V19.7902H74.5843V17.2302H64.2243V19.7902H67.8443V30.7102ZM83.0732 30.7102C82.9732 30.1702 82.9332 29.2702 82.9332 28.3302V24.9302C82.9332 22.6302 81.8932 20.7102 78.6332 20.7102C76.8532 20.7102 75.5132 21.1902 74.8332 21.5702L75.3932 23.5302C76.0332 23.1302 77.0932 22.7902 78.0932 22.7902C79.5932 22.7902 79.8732 23.5302 79.8732 24.0502V24.1902C76.4132 24.1702 74.1332 25.3902 74.1332 27.9302C74.1332 29.4902 75.3132 30.9302 77.2932 30.9302C78.4532 30.9302 79.4532 30.5102 80.0932 29.7302H80.1532L80.3332 30.7102H83.0732ZM79.9732 27.1502C79.9732 27.3302 79.9532 27.5102 79.9132 27.6702C79.7132 28.2902 79.0932 28.7902 78.3332 28.7902C77.6532 28.7902 77.1332 28.4102 77.1332 27.6302C77.1332 26.4502 78.3732 26.0702 79.9732 26.0902V27.1502ZM84.7796 30.2302C85.5196 30.6302 86.6596 30.9102 87.9396 30.9102C90.7396 30.9102 92.1796 29.5702 92.1796 27.7502C92.1596 26.3102 91.3796 25.3702 89.5196 24.7302C88.3196 24.3102 87.9396 24.0702 87.9396 23.6102C87.9396 23.1102 88.3596 22.8102 89.0996 22.8102C89.9396 22.8102 90.7796 23.1302 91.2196 23.3702L91.7596 21.2702C91.1596 20.9702 90.1396 20.7102 88.9996 20.7102C86.5796 20.7102 85.0196 22.0902 85.0196 23.9102C84.9996 25.0702 85.7796 26.1702 87.7996 26.8502C88.9396 27.2302 89.2396 27.4702 89.2396 27.9702C89.2396 28.4702 88.8596 28.7902 87.9396 28.7902C87.0396 28.7902 85.8796 28.3902 85.3196 28.0502L84.7796 30.2302ZM97.0515 16.5102H94.0115V30.7102H97.0515V27.6502L97.8315 26.6902L100.192 30.7102H103.932L99.9315 24.8902L103.432 20.9302H99.7715L97.7915 23.8702C97.5515 24.2502 97.3115 24.6502 97.0915 25.0502H97.0515V16.5102ZM120.594 30.7102H123.574L122.834 17.2302H118.854L117.414 21.7102C116.974 23.2102 116.514 24.9902 116.134 26.5502H116.074C115.774 24.9702 115.354 23.2902 114.934 21.7302L113.614 17.2302H109.554L108.694 30.7102H111.514L111.754 25.5902C111.854 23.9102 111.914 21.8302 111.994 20.0102H112.034C112.354 21.7702 112.814 23.6902 113.254 25.2702L114.694 30.4902H117.074L118.714 25.2302C119.234 23.6502 119.794 21.7302 120.214 20.0102H120.274C120.274 21.9702 120.334 23.9302 120.394 25.5502L120.594 30.7102ZM134.167 30.7102C134.067 30.1702 134.027 29.2702 134.027 28.3302V24.9302C134.027 22.6302 132.987 20.7102 129.727 20.7102C127.947 20.7102 126.607 21.1902 125.927 21.5702L126.487 23.5302C127.127 23.1302 128.187 22.7902 129.187 22.7902C130.687 22.7902 130.967 23.5302 130.967 24.0502V24.1902C127.507 24.1702 125.227 25.3902 125.227 27.9302C125.227 29.4902 126.407 30.9302 128.387 30.9302C129.547 30.9302 130.547 30.5102 131.187 29.7302H131.247L131.427 30.7102H134.167ZM131.067 27.1502C131.067 27.3302 131.047 27.5102 131.007 27.6702C130.807 28.2902 130.187 28.7902 129.427 28.7902C128.747 28.7902 128.227 28.4102 128.227 27.6302C128.227 26.4502 129.467 26.0702 131.067 26.0902V27.1502ZM136.433 30.7102H139.473V25.0702C139.473 24.7902 139.513 24.4902 139.593 24.3102C139.793 23.7502 140.293 23.1702 141.133 23.1702C142.233 23.1702 142.673 24.0302 142.673 25.2902V30.7102H145.713V24.9102C145.713 22.0302 144.213 20.7102 142.213 20.7102C140.593 20.7102 139.593 21.6502 139.193 22.2702H139.133L138.993 20.9302H136.353C136.393 21.7902 136.433 22.8302 136.433 24.0502V30.7102ZM156.452 30.7102C156.352 30.1702 156.312 29.2702 156.312 28.3302V24.9302C156.312 22.6302 155.272 20.7102 152.012 20.7102C150.232 20.7102 148.892 21.1902 148.212 21.5702L148.772 23.5302C149.412 23.1302 150.472 22.7902 151.472 22.7902C152.972 22.7902 153.252 23.5302 153.252 24.0502V24.1902C149.792 24.1702 147.512 25.3902 147.512 27.9302C147.512 29.4902 148.692 30.9302 150.672 30.9302C151.832 30.9302 152.832 30.5102 153.472 29.7302H153.532L153.712 30.7102H156.452ZM153.352 27.1502C153.352 27.3302 153.332 27.5102 153.292 27.6702C153.092 28.2902 152.472 28.7902 151.712 28.7902C151.032 28.7902 150.512 28.4102 150.512 27.6302C150.512 26.4502 151.752 26.0702 153.352 26.0902V27.1502ZM165.419 20.9302L165.319 22.0902H165.279C164.779 21.2902 163.939 20.7102 162.599 20.7102C160.199 20.7102 158.159 22.7102 158.159 25.8502C158.159 28.6702 159.879 30.6302 162.299 30.6302C163.419 30.6302 164.359 30.1702 164.939 29.3502H164.979V29.9902C164.979 31.7902 163.879 32.5702 162.439 32.5702C161.299 32.5702 160.219 32.1902 159.599 31.8302L158.999 34.1302C159.879 34.6302 161.239 34.8902 162.519 34.8902C163.959 34.8902 165.419 34.6102 166.499 33.6902C167.599 32.7102 167.979 31.1702 167.979 29.2902V23.8302C167.979 22.3702 168.019 21.5502 168.059 20.9302H165.419ZM164.939 26.3502C164.939 26.6102 164.919 26.9302 164.839 27.1502C164.639 27.8702 164.019 28.3902 163.239 28.3902C161.959 28.3902 161.239 27.2502 161.239 25.7902C161.239 24.0102 162.139 23.0102 163.239 23.0102C164.079 23.0102 164.659 23.5502 164.879 24.3502C164.919 24.5102 164.939 24.7102 164.939 24.9102V26.3502ZM179.058 26.7902C179.098 26.5702 179.158 26.1102 179.158 25.5902C179.158 23.1702 177.958 20.7102 174.798 20.7102C171.398 20.7102 169.858 23.4502 169.858 25.9302C169.858 28.9902 171.758 30.9102 175.078 30.9102C176.398 30.9102 177.618 30.7102 178.618 30.3102L178.218 28.2502C177.398 28.5102 176.558 28.6502 175.518 28.6502C174.098 28.6502 172.858 28.0502 172.758 26.7902H179.058ZM172.738 24.7102C172.818 23.8902 173.338 22.7302 174.618 22.7302C176.018 22.7302 176.338 23.9702 176.338 24.7102H172.738ZM180.984 30.7102H184.024V25.7502C184.024 25.5102 184.044 25.2702 184.084 25.0702C184.284 24.1302 185.044 23.5302 186.164 23.5302C186.504 23.5302 186.764 23.5702 186.984 23.6102V20.7502C186.764 20.7102 186.624 20.7102 186.344 20.7102C185.404 20.7102 184.204 21.3102 183.704 22.7302H183.624L183.524 20.9302H180.904C180.944 21.7702 180.984 22.7102 180.984 24.1502V30.7102Z" fill="#20262A"/>
<circle cx="25.175" cy="25.2102" r="24.2678" fill="#389FFF"/>
</svg>
