<svg width="48" height="49" viewBox="0 0 48 49" fill="none" xmlns="http://www.w3.org/2000/svg">
<rect y="0.0432129" width="48" height="48" rx="16" fill="#007AFF"/>
<path fill-rule="evenodd" clip-rule="evenodd" d="M16.5399 14.0432H19.9199C21.3299 14.0432 22.4599 15.1932 22.4599 16.6042V20.0132C22.4599 21.4332 21.3299 22.5732 19.9199 22.5732H16.5399C15.1399 22.5732 13.9999 21.4332 13.9999 20.0132V16.6042C13.9999 15.1932 15.1399 14.0432 16.5399 14.0432ZM16.5399 25.5129H19.9199C21.3299 25.5129 22.4599 26.6539 22.4599 28.0739V31.4829C22.4599 32.8929 21.3299 34.0429 19.9199 34.0429H16.5399C15.1399 34.0429 13.9999 32.8929 13.9999 31.4829V28.0739C13.9999 26.6539 15.1399 25.5129 16.5399 25.5129ZM31.46 14.0432H28.08C26.67 14.0432 25.54 15.1932 25.54 16.6042V20.0132C25.54 21.4332 26.67 22.5732 28.08 22.5732H31.46C32.86 22.5732 34 21.4332 34 20.0132V16.6042C34 15.1932 32.86 14.0432 31.46 14.0432ZM28.08 25.5129H31.46C32.86 25.5129 34 26.6539 34 28.0739V31.4829C34 32.8929 32.86 34.0429 31.46 34.0429H28.08C26.67 34.0429 25.54 32.8929 25.54 31.4829V28.0739C25.54 26.6539 26.67 25.5129 28.08 25.5129Z" fill="white"/>
</svg>
