<svg width="49" height="49" viewBox="0 0 49 49" fill="none" xmlns="http://www.w3.org/2000/svg">
<rect x="0.719727" y="0.0432129" width="48" height="48" rx="16" fill="#FF9500"/>
<path fill-rule="evenodd" clip-rule="evenodd" d="M21.5975 20.1785C21.5975 22.0452 20.0586 23.5581 18.1586 23.5581C16.2597 23.5581 14.7197 22.0452 14.7197 20.1785C14.7197 18.3129 16.2597 16.7999 18.1586 16.7999C20.0586 16.7999 21.5975 18.3129 21.5975 20.1785ZM33.2131 18.6983C34.0442 18.6983 34.7197 19.362 34.7197 20.1785C34.7197 20.9961 34.0442 21.6598 33.2131 21.6598H26.6375C25.8053 21.6598 25.1298 20.9961 25.1298 20.1785C25.1298 19.362 25.8053 18.6983 26.6375 18.6983H33.2131ZM16.2275 29.7579H22.803C23.6352 29.7579 24.3108 30.4216 24.3108 31.2392C24.3108 32.0557 23.6352 32.7205 22.803 32.7205H16.2275C15.3953 32.7205 14.7197 32.0557 14.7197 31.2392C14.7197 30.4216 15.3953 29.7579 16.2275 29.7579ZM31.2809 34.5777C33.1808 34.5777 34.7197 33.0647 34.7197 31.1991C34.7197 29.3325 33.1808 27.8195 31.2809 27.8195C29.382 27.8195 27.842 29.3325 27.842 31.1991C27.842 33.0647 29.382 34.5777 31.2809 34.5777Z" fill="white"/>
</svg>
