<svg width="49" height="49" viewBox="0 0 49 49" fill="none" xmlns="http://www.w3.org/2000/svg">
<rect x="0.439453" y="0.0432129" width="48" height="48" rx="16" fill="#6666FF"/>
<path fill-rule="evenodd" clip-rule="evenodd" d="M21.9395 24.5969C24.694 24.5969 26.9021 22.3603 26.9021 19.5701C26.9021 16.7798 24.694 14.5432 21.9395 14.5432C19.1849 14.5432 16.9768 16.7798 16.9768 19.5701C16.9768 22.3603 19.1849 24.5969 21.9395 24.5969ZM21.9395 27.0584C17.8937 27.0584 14.4395 27.7053 14.4395 30.2897C14.4395 32.873 17.8727 33.5432 21.9395 33.5432C25.9842 33.5432 29.4395 32.8964 29.4395 30.312C29.4395 27.7276 26.0062 27.0584 21.9395 27.0584ZM32.3374 21.6311H33.5405C34.0357 21.6311 34.4395 22.0405 34.4395 22.5427C34.4395 23.0449 34.0357 23.4543 33.5405 23.4543H32.3374V24.6316C32.3374 25.1338 31.9347 25.5432 31.4384 25.5432C30.9432 25.5432 30.5395 25.1338 30.5395 24.6316V23.4543H29.3384C28.8422 23.4543 28.4395 23.0449 28.4395 22.5427C28.4395 22.0405 28.8422 21.6311 29.3384 21.6311H30.5395V20.4548C30.5395 19.9527 30.9432 19.5432 31.4384 19.5432C31.9347 19.5432 32.3374 19.9527 32.3374 20.4548V21.6311Z" fill="white"/>
</svg>
