<svg width="49" height="49" viewBox="0 0 49 49" fill="none" xmlns="http://www.w3.org/2000/svg">
<rect x="0.193359" y="0.808228" width="48" height="48" rx="16" fill="#F9F47A"/>
<path fill-rule="evenodd" clip-rule="evenodd" d="M19.6699 14.8083H28.3399C31.7299 14.8083 33.9999 17.1873 33.9999 20.7273V28.8973C33.9999 32.4283 31.7299 34.8083 28.3399 34.8083H19.6699C16.2799 34.8083 13.9999 32.4283 13.9999 28.8973V20.7273C13.9999 17.1873 16.2799 14.8083 19.6699 14.8083ZM27.5799 28.6183C27.8299 28.6183 28.0799 28.4883 28.2199 28.2484C28.4399 27.8973 28.3199 27.4374 27.9599 27.2183L24.3999 25.0983V20.4773C24.3999 20.0683 24.0699 19.7273 23.6499 19.7273C23.2399 19.7273 22.8999 20.0683 22.8999 20.4773V25.5283C22.8999 25.7884 23.0399 26.0384 23.2699 26.1684L27.1899 28.5084C27.3099 28.5884 27.4499 28.6183 27.5799 28.6183Z" fill="white"/>
</svg>
