<svg width="49" height="49" viewBox="0 0 49 49" fill="none" xmlns="http://www.w3.org/2000/svg">
<rect x="0.719727" y="0.808228" width="48" height="48" rx="16" fill="#6EEE83"/>
<path fill-rule="evenodd" clip-rule="evenodd" d="M16.8479 14.8082H32.5915C33.7673 14.8082 34.7197 15.7893 34.7197 17.0005V18.532C34.7197 19.1196 34.4901 19.6838 34.0824 20.0953L27.5774 26.6753C27.4652 26.7898 27.3128 26.8534 27.1552 26.8524L21.7087 26.8354C21.5429 26.8354 21.3854 26.7643 21.2721 26.6403L15.2942 20.0656C14.9246 19.6594 14.7197 19.1227 14.7197 18.5659V17.0015C14.7197 15.7903 15.6721 14.8082 16.8479 14.8082ZM21.9998 28.6324L26.8544 28.6472C27.1571 28.6483 27.4021 28.9018 27.4021 29.2125V31.9436C27.4021 32.2554 27.2251 32.5375 26.9491 32.6679L22.5424 34.7372C22.4395 34.7849 22.3303 34.8082 22.2212 34.8082C22.076 34.8082 21.9308 34.7658 21.8042 34.682C21.5828 34.5357 21.449 34.2832 21.449 34.0128V29.1977C21.449 28.8848 21.6961 28.6313 21.9998 28.6324Z" fill="white"/>
</svg>
