<svg width="40" height="41" viewBox="0 0 40 41" fill="none" xmlns="http://www.w3.org/2000/svg">
<path d="M13.4575 25.0399C13.158 25.0399 12.9561 25.0699 12.8519 25.0999V27.0633C12.9756 27.0933 13.1303 27.1016 13.3436 27.1016C14.1233 27.1016 14.6036 26.6983 14.6036 26.0166C14.6036 25.4066 14.1901 25.0399 13.4575 25.0399ZM19.134 25.0599C18.8084 25.0599 18.5968 25.0899 18.4715 25.1199V29.4699C18.5968 29.4999 18.7987 29.4999 18.981 29.4999C20.311 29.5099 21.177 28.7599 21.177 27.1733C21.1868 25.7899 20.3973 25.0599 19.134 25.0599Z" fill="white"/>
<path d="M22.7908 3.90662H9.76753C8.90404 3.90662 8.07591 4.25781 7.46532 4.88293C6.85474 5.50805 6.51172 6.35589 6.51172 7.23995V33.9066C6.51172 34.7907 6.85474 35.6385 7.46532 36.2636C8.07591 36.8888 8.90404 37.24 9.76753 37.24H29.3024C30.1659 37.24 30.994 36.8888 31.6046 36.2636C32.2152 35.6385 32.5582 34.7907 32.5582 33.9066V13.9066L22.7908 3.90662ZM15.462 27.5566C14.9589 28.04 14.2166 28.2566 13.3522 28.2566C13.1846 28.2585 13.017 28.2485 12.8508 28.2266V30.6033H11.3954V24.0433C12.0522 23.943 12.7159 23.8973 13.3799 23.9066C14.2866 23.9066 14.9313 24.0833 15.3659 24.4383C15.7794 24.775 16.0594 25.3266 16.0594 25.9766C16.0578 26.6299 15.8461 27.1816 15.462 27.5566ZM21.6594 29.815C20.9757 30.3966 19.9354 30.6733 18.664 30.6733C17.9022 30.6733 17.3633 30.6233 16.9971 30.5733V24.045C17.6541 23.9468 18.3175 23.9005 18.9815 23.9066C20.2138 23.9066 21.0147 24.1333 21.6399 24.6166C22.3154 25.1299 22.7387 25.9483 22.7387 27.1233C22.7387 28.395 22.2845 29.2733 21.6594 29.815ZM27.6745 25.19H25.1806V26.7083H27.5117V27.9316H25.1806V30.6049H23.7057V23.9566H27.6745V25.19ZM22.7908 15.5733H21.1629V7.23995L29.3024 15.5733H22.7908Z" fill="white"/>
</svg>
